{"glyphs":{"0":{"ha":1053,"x_min":99,"x_max":989,"o":"m 494 0 q 195 101 292 0 q 99 411 99 201 l 99 561 q 195 872 99 771 q 494 972 292 972 l 593 972 q 892 872 796 972 q 989 561 989 771 l 989 411 q 892 101 989 201 q 593 0 796 0 l 494 0 m 243 382 q 307 186 243 253 q 494 119 371 119 l 593 119 q 781 186 717 119 q 844 382 844 253 l 844 590 q 781 786 844 719 q 593 853 717 853 l 494 853 q 307 786 371 853 q 243 590 243 719 l 243 382 z "},"1":{"ha":551,"x_min":119,"x_max":446,"o":"m 303 0 l 303 853 l 119 853 l 119 972 l 446 972 l 446 0 l 303 0 z "},"2":{"ha":1042,"x_min":119,"x_max":956,"o":"m 265 119 l 922 119 l 922 0 l 228 0 q 144 26 169 0 q 119 113 119 53 l 119 350 q 144 436 119 410 q 228 463 169 463 l 607 463 q 755 514 701 463 q 808 665 808 565 q 765 803 808 753 q 635 853 721 853 l 149 853 l 149 972 l 661 972 q 792 949 736 972 q 884 881 847 925 q 938 776 921 838 q 956 640 956 715 q 882 414 956 485 q 661 343 808 343 l 264 343 l 265 119 z "},"3":{"ha":960,"x_min":119,"x_max":892,"o":"m 119 0 l 119 119 l 597 119 q 704 165 664 119 q 744 276 744 210 q 703 387 744 343 q 597 431 663 431 l 215 431 l 215 550 l 540 550 q 646 592 604 550 q 688 701 688 635 q 646 810 688 768 q 540 853 604 853 l 119 853 l 119 972 l 540 972 q 652 955 599 972 q 747 903 706 938 q 811 817 788 868 q 835 701 835 767 q 815 600 835 643 q 763 513 796 557 q 858 413 825 465 q 892 276 892 360 q 868 160 892 211 q 805 73 844 108 q 712 19 765 38 q 597 0 658 0 l 119 0 z "},"4":{"ha":928,"x_min":119,"x_max":838,"o":"m 119 244 l 119 972 l 264 972 l 264 364 l 693 364 l 693 972 l 838 972 l 838 0 l 693 0 l 693 244 l 119 244 z "},"5":{"ha":1042,"x_min":119,"x_max":956,"o":"m 149 0 l 149 119 l 635 119 q 766 172 724 119 q 808 311 808 224 q 754 461 808 413 q 607 510 700 510 l 228 510 q 144 536 169 510 q 119 622 119 563 l 119 860 q 144 946 119 919 q 228 972 169 972 l 922 972 l 922 853 l 265 853 l 264 629 l 661 629 q 883 558 810 629 q 956 331 956 486 q 938 194 956 256 q 884 90 921 133 q 792 24 847 47 q 661 0 736 0 l 149 0 z "},"6":{"ha":1021,"x_min":119,"x_max":956,"o":"m 264 629 l 661 629 q 882 558 808 629 q 956 332 956 488 q 938 196 956 257 q 884 91 921 135 q 792 24 847 47 q 661 0 736 0 l 443 0 q 199 82 278 0 q 119 336 119 164 l 119 860 q 144 946 119 919 q 228 972 169 972 l 865 972 l 865 853 l 264 853 l 264 629 m 264 510 l 264 307 q 310 167 264 215 q 443 119 356 119 l 635 119 q 766 172 724 119 q 808 311 808 224 q 754 461 808 413 q 607 510 700 510 l 264 510 z "},"7":{"ha":922,"x_min":119,"x_max":831,"o":"m 372 0 l 688 853 l 119 853 l 119 972 l 831 972 l 831 824 l 529 0 l 372 0 z "},"8":{"ha":1022,"x_min":99,"x_max":957,"o":"m 228 513 l 224 519 q 174 604 192 564 q 156 701 156 644 q 179 817 156 767 q 243 902 203 868 q 337 954 283 936 q 450 972 390 972 l 606 972 q 719 954 665 972 q 813 902 772 936 q 876 817 853 868 q 900 701 900 767 q 882 604 900 644 q 832 519 864 564 l 828 513 l 833 508 q 926 410 894 463 q 957 276 957 358 q 934 161 957 213 q 871 74 911 110 q 778 19 831 38 q 664 0 725 0 l 392 0 q 278 19 332 0 q 185 74 225 38 q 122 161 144 110 q 99 276 99 213 q 130 410 99 358 q 222 508 161 463 l 228 513 m 303 701 q 344 592 303 633 q 450 550 386 550 l 606 550 q 711 592 669 550 q 753 701 753 633 q 711 810 753 768 q 606 853 669 853 l 450 853 q 344 810 386 853 q 303 701 303 768 m 392 119 l 664 119 q 770 165 731 119 q 810 276 810 210 q 769 387 810 343 q 664 431 729 431 l 392 431 q 286 387 326 431 q 246 276 246 343 q 285 165 246 210 q 392 119 325 119 z "},"9":{"ha":1021,"x_min":99,"x_max":935,"o":"m 188 0 l 188 119 l 790 119 l 790 343 l 392 343 q 172 414 244 343 q 99 640 99 485 q 116 776 99 715 q 169 881 133 838 q 261 949 206 925 q 392 972 317 972 l 610 972 q 856 890 776 972 q 935 636 935 808 l 935 113 q 910 26 935 53 q 826 0 885 0 l 188 0 m 790 463 l 790 665 q 744 805 790 757 q 610 853 697 853 l 418 853 q 288 801 329 853 q 246 661 246 749 q 301 512 246 561 q 447 463 356 463 l 790 463 z "},"\u0000":{"ha":0,"x_min":0,"x_max":0,"o":""},"\r":{"ha":347,"x_min":0,"x_max":0,"o":""}," ":{"ha":347,"x_min":0,"x_max":0,"o":""},"!":{"ha":375,"x_min":119,"x_max":264,"o":"m 133 328 l 119 972 l 264 972 l 249 328 l 133 328 m 126 0 l 126 118 l 256 118 l 256 0 l 126 0 z "},"\"":{"ha":558,"x_min":125,"x_max":447,"o":"m 157 747 l 125 972 l 229 972 l 197 747 l 157 747 m 375 747 l 344 972 l 447 972 l 417 747 l 375 747 z "},"#":{"ha":981,"x_min":119,"x_max":892,"o":"m 228 0 l 228 269 l 119 269 l 119 389 l 228 389 l 228 583 l 119 583 l 119 703 l 228 703 l 228 972 l 371 972 l 371 703 l 649 703 l 649 972 l 792 972 l 792 703 l 892 703 l 892 583 l 792 583 l 792 389 l 892 389 l 892 269 l 792 269 l 792 0 l 649 0 l 649 269 l 371 269 l 371 0 l 228 0 m 371 389 l 649 389 l 649 583 l 371 583 l 371 389 z "},"$":{"ha":1194,"x_min":119,"x_max":1114,"o":"m 153 0 l 153 119 l 558 119 l 558 426 l 413 426 q 298 441 351 426 q 205 487 244 456 q 142 567 165 518 q 119 685 119 617 q 142 809 119 756 q 206 898 165 863 q 301 953 246 933 q 421 974 356 972 q 486 974 453 975 q 551 972 519 972 l 558 972 l 558 1046 l 674 1046 l 674 972 l 1085 972 l 1085 853 l 674 853 l 674 546 l 819 546 q 935 531 882 546 q 1028 484 989 515 q 1091 403 1068 453 q 1114 285 1114 354 q 1091 163 1114 215 q 1028 74 1068 110 q 933 20 988 39 q 814 -1 878 1 q 747 -1 781 -3 q 682 0 714 0 l 674 0 l 674 -74 l 558 -74 l 558 0 l 153 0 m 558 546 l 558 853 l 413 853 q 306 808 344 853 q 267 694 267 763 q 281 624 267 653 q 321 578 296 596 q 377 553 346 561 q 442 546 408 546 l 558 546 m 674 119 l 819 119 q 926 163 885 119 q 967 272 967 206 q 952 343 967 314 q 913 391 938 372 q 857 418 889 410 q 790 426 825 426 l 674 426 l 674 119 z "},"%":{"ha":1771,"x_min":119,"x_max":1713,"o":"m 1207 239 q 1221 181 1207 204 q 1257 144 1235 157 q 1307 125 1279 131 q 1361 119 1335 119 l 1415 119 q 1470 125 1443 119 q 1519 144 1497 131 q 1554 181 1540 157 q 1568 239 1568 204 l 1568 317 q 1555 376 1568 353 q 1519 414 1542 400 q 1470 433 1497 428 q 1415 439 1443 439 l 1361 439 q 1306 433 1333 439 q 1256 414 1278 428 q 1221 376 1235 400 q 1207 317 1207 353 l 1207 239 m 264 654 q 278 594 264 618 q 314 558 292 571 q 364 539 336 544 q 418 533 392 533 l 471 533 q 526 539 499 533 q 574 558 553 544 q 610 594 596 571 q 624 654 624 618 l 624 731 q 610 790 624 767 q 575 828 597 814 q 526 847 553 842 q 471 853 499 853 l 418 853 q 363 847 390 853 q 313 828 335 842 q 278 790 292 814 q 264 731 264 767 l 264 654 m 556 0 l 1135 972 l 1271 972 l 692 0 l 556 0 m 1064 233 l 1064 325 q 1086 440 1064 394 q 1147 511 1108 485 q 1238 548 1186 538 q 1350 558 1290 558 l 1425 558 q 1538 548 1485 558 q 1629 511 1590 538 q 1690 440 1668 485 q 1713 325 1713 394 l 1713 233 q 1690 119 1713 164 q 1629 47 1668 74 q 1538 10 1590 21 q 1425 0 1485 0 l 1350 0 q 1238 10 1290 0 q 1147 47 1186 21 q 1086 119 1108 74 q 1064 233 1064 164 m 119 647 l 119 739 q 142 853 119 808 q 203 925 164 899 q 294 962 242 951 q 406 972 346 972 l 481 972 q 593 962 540 972 q 685 925 646 951 q 746 853 724 899 q 768 739 768 808 l 768 647 q 746 533 768 578 q 685 461 724 488 q 593 424 646 435 q 481 414 540 414 l 406 414 q 294 424 346 414 q 203 461 242 435 q 142 533 164 488 q 119 647 119 578 z "},"&":{"ha":1061,"x_min":99,"x_max":976,"o":"m 228 513 l 224 519 q 174 604 192 564 q 156 701 156 644 q 179 817 156 767 q 243 902 203 868 q 337 954 283 936 q 450 972 390 972 l 871 972 l 871 853 l 450 853 q 344 810 386 853 q 303 701 303 768 q 344 592 303 633 q 450 550 386 550 l 796 550 q 933 505 889 550 q 976 364 976 460 l 976 -169 l 832 -169 l 832 0 l 392 0 q 278 19 332 0 q 185 74 225 38 q 122 161 146 110 q 99 276 99 213 q 199 490 99 411 l 228 513 m 832 119 l 832 318 q 803 401 832 371 q 724 431 775 431 l 392 431 q 286 387 326 431 q 246 276 246 343 q 285 165 246 210 q 392 119 325 119 l 832 119 z "},"'":{"ha":347,"x_min":125,"x_max":229,"o":"m 157 747 l 125 972 l 229 972 l 197 747 l 157 747 z "},"(":{"ha":597,"x_min":119,"x_max":433,"o":"m 313 -61 q 203 46 242 -15 q 145 177 164 107 q 123 324 126 247 q 119 478 119 400 q 123 632 119 556 q 145 778 126 708 q 203 908 164 847 q 313 1015 242 969 l 433 1015 q 414 994 424 1004 q 394 974 404 985 q 322 863 349 922 q 283 740 296 803 q 267 610 271 676 q 264 478 264 544 q 267 345 264 411 q 283 215 271 279 q 322 92 296 151 q 394 -19 349 33 q 414 -40 404 -31 q 433 -61 424 -50 l 313 -61 z "},")":{"ha":597,"x_min":179,"x_max":493,"o":"m 179 -61 q 199 -40 189 -50 q 218 -19 208 -31 q 290 92 264 33 q 330 215 317 151 q 347 345 343 279 q 350 478 350 411 q 347 610 350 544 q 330 740 343 676 q 290 863 317 803 q 218 974 264 922 q 199 994 208 985 q 179 1015 189 1004 l 299 1015 q 409 913 369 974 q 467 779 449 851 q 490 630 486 707 q 493 478 493 553 q 490 325 493 403 q 467 176 486 247 q 409 42 449 104 q 299 -61 369 -19 l 179 -61 z "},"*":{"ha":925,"x_min":128,"x_max":825,"o":"m 161 436 l 369 638 l 128 697 l 167 838 l 417 750 l 406 1003 l 547 1003 l 538 750 l 786 838 l 825 697 l 583 638 l 792 436 l 693 332 l 476 581 l 260 332 l 161 436 z "},"+":{"ha":867,"x_min":119,"x_max":774,"o":"m 389 147 l 389 426 l 119 426 l 119 546 l 389 546 l 389 825 l 504 825 l 504 546 l 774 546 l 774 426 l 504 426 l 504 147 l 389 147 z "},",":{"ha":361,"x_min":119,"x_max":249,"o":"m 186 -125 l 163 -125 l 224 0 l 119 0 l 119 118 l 249 118 l 249 0 l 186 -125 z "},"-":{"ha":614,"x_min":119,"x_max":511,"o":"m 119 353 l 119 472 l 511 472 l 511 353 l 119 353 z "},".":{"ha":361,"x_min":119,"x_max":249,"o":"m 119 0 l 119 118 l 249 118 l 249 0 l 119 0 z "},"/":{"ha":728,"x_min":133,"x_max":615,"o":"m 133 -58 l 493 1008 l 615 1008 l 256 -58 l 133 -58 z "},":":{"ha":361,"x_min":119,"x_max":249,"o":"m 119 554 l 119 672 l 249 672 l 249 554 l 119 554 m 119 0 l 119 118 l 249 118 l 249 0 l 119 0 z "},";":{"ha":361,"x_min":119,"x_max":249,"o":"m 119 0 l 119 118 l 249 118 l 249 0 l 119 0 m 119 554 l 119 672 l 249 672 l 249 554 l 119 554 m 186 -125 l 249 -25 l 249 -26 l 186 -125 z "},"<":{"ha":879,"x_min":119,"x_max":786,"o":"m 119 353 l 119 519 l 786 824 l 786 692 l 229 436 l 786 179 l 786 49 l 119 353 z "},"=":{"ha":867,"x_min":119,"x_max":774,"o":"m 119 606 l 119 725 l 774 725 l 774 606 l 119 606 m 119 247 l 119 367 l 774 367 l 774 247 l 119 247 z "},">":{"ha":879,"x_min":119,"x_max":786,"o":"m 119 49 l 119 179 l 676 436 l 119 692 l 119 824 l 786 519 l 786 353 l 119 49 z "},"?":{"ha":1000,"x_min":119,"x_max":933,"o":"m 125 328 l 125 485 q 150 571 125 544 q 233 597 175 597 l 615 597 q 674 601 644 597 q 729 619 704 606 q 770 658 754 633 q 786 721 786 682 q 770 786 786 761 q 729 826 754 811 q 674 847 704 842 q 614 853 643 853 l 126 853 l 126 972 l 639 972 q 756 960 701 972 q 849 918 810 947 q 911 841 889 889 q 933 722 933 793 q 911 604 933 651 q 849 528 889 557 q 756 489 810 500 q 639 478 701 478 l 239 478 l 240 328 l 125 328 m 119 0 l 119 118 l 249 118 l 249 0 l 119 0 z "},"@":{"ha":1882,"x_min":119,"x_max":1828,"o":"m 1068 -164 l 801 -164 q 647 -151 724 -164 q 500 -110 571 -139 q 342 -19 413 -75 q 222 110 272 38 q 146 271 172 183 q 119 456 119 358 q 144 638 119 551 q 217 798 169 725 q 333 928 265 871 q 486 1022 401 986 q 629 1065 556 1053 q 778 1076 703 1076 l 1213 1076 q 1461 1041 1349 1076 q 1656 933 1574 1006 q 1783 752 1738 861 q 1828 497 1828 643 q 1781 242 1828 346 q 1652 74 1735 138 q 1457 -19 1569 10 q 1211 -47 1344 -47 l 1211 672 l 779 672 q 695 656 733 672 q 631 611 657 640 q 590 542 604 582 q 575 454 575 501 q 590 367 575 407 q 631 299 604 328 q 695 255 657 271 q 779 239 733 239 l 1068 239 l 1068 119 l 779 119 q 642 142 706 119 q 530 208 578 165 q 455 313 482 250 q 428 454 428 375 q 454 601 428 538 q 527 707 481 664 q 638 772 574 750 q 779 793 703 793 l 1356 793 l 1356 76 l 1364 78 q 1510 124 1450 89 q 1608 213 1571 158 q 1663 338 1646 267 q 1681 492 1681 408 q 1655 684 1681 599 q 1577 831 1629 769 q 1447 924 1525 892 q 1261 957 1368 957 l 756 957 q 563 919 651 957 q 408 815 474 882 q 304 656 342 749 q 267 456 267 564 q 306 254 267 346 q 413 96 344 163 q 574 -8 481 29 q 775 -44 667 -44 l 1068 -44 l 1068 -164 z "},"A":{"ha":1275,"x_min":93,"x_max":1226,"o":"m 93 0 l 382 786 q 431 881 403 844 q 497 937 460 917 q 579 965 533 957 q 681 972 625 972 q 938 786 869 972 l 1226 0 l 1071 0 l 956 314 l 564 314 l 608 433 l 913 433 l 796 758 q 742 829 778 806 q 657 853 706 853 q 575 828 610 853 q 524 758 540 804 l 249 0 l 93 0 z "},"B":{"ha":1193,"x_min":119,"x_max":1133,"o":"m 119 0 l 119 972 l 782 972 q 894 955 840 972 q 988 903 947 938 q 1053 817 1029 868 q 1076 701 1076 767 q 1057 600 1076 642 q 1004 513 1038 558 q 1060 465 1036 489 q 1100 413 1083 440 q 1125 351 1117 385 q 1133 276 1133 318 q 1110 160 1133 211 q 1047 73 1086 108 q 953 19 1007 38 q 840 0 900 0 l 119 0 m 264 119 l 840 119 q 947 165 906 119 q 988 276 988 210 q 946 387 988 343 q 840 431 904 431 l 450 431 l 450 550 l 782 550 q 888 592 846 550 q 929 701 929 635 q 888 810 929 768 q 782 853 846 853 l 264 853 l 264 119 z "},"C":{"ha":1118,"x_min":99,"x_max":1035,"o":"m 1035 0 l 494 0 q 195 101 292 0 q 99 411 99 201 l 99 561 q 195 872 99 771 q 494 972 292 972 l 1035 972 l 1035 853 l 494 853 q 307 786 371 853 q 243 590 243 719 l 243 382 q 307 186 243 253 q 494 119 371 119 l 1035 119 l 1035 0 z "},"D":{"ha":1133,"x_min":119,"x_max":1072,"o":"m 119 0 l 119 972 l 675 972 q 975 872 878 972 q 1072 561 1072 771 l 1072 411 q 975 101 1072 201 q 675 0 878 0 l 119 0 m 264 119 l 675 119 q 864 186 800 119 q 928 382 928 253 l 928 590 q 864 786 928 719 q 675 853 800 853 l 264 853 l 264 119 z "},"E":{"ha":1118,"x_min":99,"x_max":1035,"o":"m 243 431 l 243 382 q 307 186 243 253 q 494 119 371 119 l 1035 119 l 1035 0 l 494 0 q 195 101 292 0 q 99 411 99 201 l 99 561 q 195 872 99 771 q 494 972 292 972 l 1035 972 l 1035 853 l 494 853 q 372 831 421 853 q 295 770 324 810 q 255 675 267 731 q 243 550 243 619 l 946 550 l 946 431 l 243 431 z "},"F":{"ha":1106,"x_min":119,"x_max":1056,"o":"m 119 0 l 119 561 q 216 872 119 771 q 515 972 313 972 l 1056 972 l 1056 853 l 515 853 q 327 785 390 853 q 264 588 264 717 l 264 550 l 967 550 l 967 431 l 264 431 l 264 0 l 119 0 z "},"G":{"ha":1168,"x_min":99,"x_max":1088,"o":"m 514 431 l 514 550 l 1088 550 l 1088 0 l 494 0 q 195 101 292 0 q 99 411 99 201 l 99 561 q 195 872 99 771 q 494 972 292 972 l 1088 972 l 1088 853 l 494 853 q 307 786 371 853 q 243 590 243 719 l 243 382 q 307 186 243 253 q 494 119 371 119 l 943 119 l 943 431 l 514 431 z "},"H":{"ha":1172,"x_min":119,"x_max":1090,"o":"m 119 0 l 119 972 l 264 972 l 264 550 l 946 550 l 946 972 l 1090 972 l 1090 0 l 946 0 l 946 431 l 264 431 l 264 0 l 119 0 z "},"I":{"ha":917,"x_min":119,"x_max":825,"o":"m 119 0 l 119 119 l 407 119 l 407 853 l 119 853 l 119 972 l 825 972 l 825 853 l 551 853 l 551 119 l 825 119 l 825 0 l 119 0 z "},"J":{"ha":1106,"x_min":119,"x_max":1021,"o":"m 119 0 l 119 119 l 625 119 q 813 186 749 119 q 878 382 878 253 l 878 853 l 119 853 l 119 972 l 1021 972 l 1021 411 q 924 101 1021 201 q 625 0 828 0 l 119 0 z "},"K":{"ha":1158,"x_min":119,"x_max":1090,"o":"m 119 0 l 119 972 l 264 972 l 264 597 l 694 597 q 882 663 818 597 q 946 858 946 729 l 946 972 l 1090 972 l 1090 888 q 1084 788 1090 838 q 1062 694 1078 739 q 1019 609 1046 649 q 950 538 992 569 q 1019 466 992 506 q 1062 381 1046 426 q 1084 285 1078 335 q 1090 186 1090 236 l 1090 0 l 946 0 q 947 113 946 56 q 945 224 949 171 q 930 323 942 276 q 890 403 918 369 q 815 458 863 438 q 694 478 768 478 l 264 478 l 264 0 l 119 0 z "},"L":{"ha":1139,"x_min":119,"x_max":1056,"o":"m 119 0 l 119 972 l 264 972 l 264 119 l 1056 119 l 1056 0 l 119 0 z "},"M":{"ha":1582,"x_min":119,"x_max":1515,"o":"m 119 0 l 119 972 l 465 972 q 562 965 511 972 q 660 942 613 958 q 749 897 707 925 q 818 828 790 869 q 888 897 846 869 q 976 942 929 925 q 1074 965 1024 958 q 1171 972 1125 972 l 1515 972 l 1515 0 l 1372 0 l 1372 853 l 1143 853 q 1031 831 1079 853 q 952 769 983 808 q 906 676 921 729 q 890 561 890 624 l 890 0 l 746 0 l 746 561 q 731 676 746 624 q 684 769 715 729 q 606 831 653 808 q 494 853 558 853 l 264 853 l 264 0 l 119 0 z "},"N":{"ha":1182,"x_min":119,"x_max":1101,"o":"m 119 0 l 119 972 l 675 972 q 864 952 783 972 q 997 884 944 932 q 1076 757 1050 836 q 1101 561 1101 678 l 1101 0 l 957 0 l 957 561 q 942 676 957 624 q 895 769 926 729 q 817 831 864 808 q 704 853 769 853 l 264 853 l 264 0 l 119 0 z "},"O":{"ha":1274,"x_min":99,"x_max":1218,"o":"m 494 0 q 195 101 292 0 q 99 411 99 201 l 99 561 q 195 872 99 771 q 494 972 292 972 l 822 972 q 1122 872 1025 972 q 1218 561 1218 771 l 1218 411 q 1122 101 1218 201 q 822 0 1025 0 l 494 0 m 243 382 q 307 186 243 253 q 494 119 371 119 l 822 119 q 1010 186 946 119 q 1074 382 1074 253 l 1074 590 q 1010 786 1074 719 q 822 853 946 853 l 494 853 q 307 786 371 853 q 243 590 243 719 l 243 382 z "},"P":{"ha":1193,"x_min":119,"x_max":1133,"o":"m 119 0 l 119 972 l 840 972 q 953 953 900 972 q 1046 899 1006 935 q 1110 812 1086 863 q 1133 696 1133 761 q 1110 580 1133 631 q 1046 494 1086 529 q 952 440 1006 458 q 840 422 899 422 l 264 422 l 264 0 l 119 0 m 264 542 l 840 542 q 946 585 904 542 q 988 696 988 629 q 947 808 988 763 q 840 853 906 853 l 264 853 l 264 542 z "},"Q":{"ha":1274,"x_min":99,"x_max":1218,"o":"m 588 -175 l 588 0 l 494 0 q 195 101 292 0 q 99 411 99 201 l 99 561 q 195 872 99 771 q 494 972 292 972 l 822 972 q 1122 872 1025 972 q 1218 561 1218 771 l 1218 411 q 1122 101 1218 201 q 822 0 1025 0 l 731 0 l 731 -175 l 588 -175 m 243 382 q 307 186 243 253 q 494 119 371 119 l 822 119 q 1010 186 946 119 q 1074 382 1074 253 l 1074 590 q 1010 786 1074 719 q 822 853 946 853 l 494 853 q 307 786 371 853 q 243 590 243 719 l 243 382 z "},"R":{"ha":1200,"x_min":119,"x_max":1133,"o":"m 119 0 l 119 972 l 840 972 q 953 953 900 972 q 1047 899 1007 935 q 1110 813 1086 864 q 1133 696 1133 761 q 1125 623 1133 653 q 1102 568 1117 593 q 1066 520 1088 543 q 1019 468 1044 497 q 1075 400 1053 433 q 1110 331 1097 367 q 1128 256 1124 296 q 1133 168 1133 217 l 1133 0 l 990 0 l 992 107 q 983 240 992 182 q 947 339 974 299 q 869 401 919 379 q 738 422 819 422 l 264 422 l 264 0 l 119 0 m 264 542 l 840 542 q 946 585 904 542 q 988 696 988 629 q 947 808 988 763 q 840 853 906 853 l 264 853 l 264 542 z "},"S":{"ha":1153,"x_min":99,"x_max":1094,"o":"m 132 0 l 132 119 l 799 119 q 905 163 864 119 q 946 272 946 206 q 931 342 946 313 q 893 390 917 371 q 838 417 869 408 q 769 426 806 426 l 392 426 q 278 441 332 426 q 185 487 225 456 q 122 567 144 518 q 99 685 99 615 q 121 805 99 751 q 183 896 143 858 q 276 953 222 933 q 392 972 329 972 l 1064 972 l 1064 853 l 392 853 q 285 808 325 853 q 246 694 246 763 q 271 613 246 643 q 338 567 296 582 q 438 549 381 553 q 558 544 494 544 q 681 544 618 544 q 803 540 744 544 q 915 520 863 535 q 1006 477 967 506 q 1069 402 1046 449 q 1093 285 1092 356 q 1072 165 1094 218 q 1009 75 1049 111 q 915 19 969 39 q 799 0 861 0 l 132 0 z "},"T":{"ha":1317,"x_min":119,"x_max":1240,"o":"m 608 0 l 608 853 l 119 853 l 119 972 l 1240 972 l 1240 853 l 751 853 l 751 0 l 608 0 z "},"U":{"ha":1182,"x_min":119,"x_max":1101,"o":"m 957 140 l 957 971 l 1101 971 l 1101 0 l 544 0 q 356 20 436 0 q 224 88 276 40 q 145 215 171 136 q 119 411 119 294 l 119 972 l 264 972 l 264 411 q 326 213 264 286 q 517 140 388 140 l 957 140 z "},"V":{"ha":1275,"x_min":93,"x_max":1226,"o":"m 93 972 l 249 972 l 524 214 q 578 143 542 167 q 663 119 614 119 q 744 144 710 119 q 796 214 779 168 l 1071 972 l 1226 972 l 938 186 q 888 92 917 128 q 823 35 860 56 q 740 8 786 15 q 639 0 694 0 q 382 186 450 0 l 93 972 z "},"W":{"ha":1582,"x_min":119,"x_max":1515,"o":"m 119 0 l 119 972 l 264 972 l 264 119 l 494 119 q 606 142 558 119 q 684 203 653 164 q 731 296 715 243 q 746 411 746 349 l 746 972 l 890 972 l 890 411 q 906 296 890 349 q 952 203 921 243 q 1031 142 983 164 q 1143 119 1079 119 l 1372 119 l 1372 972 l 1515 972 l 1515 0 l 1171 0 q 1075 7 1125 0 q 977 31 1025 14 q 888 75 929 47 q 818 144 846 103 q 749 75 790 103 q 659 31 707 47 q 561 7 611 14 q 465 0 511 0 l 119 0 z "},"X":{"ha":1194,"x_min":119,"x_max":1114,"o":"m 119 0 l 119 186 q 149 381 119 289 q 260 538 178 474 q 178 627 207 578 q 137 733 150 676 q 122 849 124 789 q 119 972 119 910 l 264 972 l 264 858 q 328 663 264 729 q 515 597 392 597 l 717 597 q 906 663 842 597 q 969 858 969 729 l 969 972 l 1114 972 l 1114 888 q 1108 788 1114 838 q 1085 694 1101 739 q 1041 609 1068 649 q 972 538 1014 569 q 1085 381 1056 474 q 1114 186 1114 289 l 1114 0 l 969 0 q 971 169 969 85 q 953 323 972 254 q 880 435 933 392 q 717 478 826 478 l 515 478 q 396 458 443 478 q 321 404 349 439 q 281 323 293 369 q 265 224 268 276 q 263 113 261 171 q 264 0 264 56 l 119 0 z "},"Y":{"ha":1194,"x_min":119,"x_max":1114,"o":"m 544 0 l 544 371 l 518 371 q 217 471 315 371 q 119 782 119 571 l 119 972 l 264 972 q 262 859 264 917 q 263 748 260 801 q 278 647 267 694 q 319 565 290 600 q 394 510 347 531 q 515 490 442 490 l 717 490 q 838 510 790 490 q 914 565 886 531 q 954 647 942 600 q 970 748 967 694 q 972 859 974 801 q 969 972 969 917 l 1114 972 l 1114 782 q 1087 588 1114 667 q 1006 462 1060 510 q 873 393 953 414 q 689 371 793 372 l 689 0 l 544 0 z "},"Z":{"ha":1163,"x_min":119,"x_max":1081,"o":"m 119 0 l 119 53 q 175 235 119 154 q 314 383 231 315 q 494 506 397 450 q 675 613 592 561 q 814 713 758 664 q 869 814 869 761 l 869 851 l 128 851 l 128 971 l 1072 971 q 1067 878 1072 921 q 1042 788 1063 835 q 939 640 1004 703 q 797 528 874 578 q 642 436 721 479 q 497 347 563 393 q 389 247 432 301 q 342 119 346 192 l 1081 119 l 1081 0 l 119 0 z "},"[":{"ha":540,"x_min":119,"x_max":435,"o":"m 119 -61 l 119 1015 l 435 1015 l 435 971 l 264 971 l 264 -17 l 435 -17 l 435 -61 l 119 -61 z "},"\\":{"ha":728,"x_min":133,"x_max":615,"o":"m 493 -58 l 133 1008 l 256 1008 l 615 -58 l 493 -58 z "},"]":{"ha":540,"x_min":119,"x_max":435,"o":"m 119 -61 l 119 -17 l 290 -17 l 290 971 l 119 971 l 119 1015 l 435 1015 l 435 -61 l 119 -61 z "},"^":{"ha":1031,"x_min":157,"x_max":906,"o":"m 157 600 l 431 972 l 632 972 l 906 600 l 760 600 l 531 911 l 301 600 l 157 600 z "},"_":{"ha":751,"x_min":119,"x_max":654,"o":"m 119 -194 l 119 -74 l 654 -74 l 654 -194 l 119 -194 z "},"`":{"ha":506,"x_min":147,"x_max":369,"o":"m 235 826 l 147 972 l 283 972 l 369 826 l 235 826 z "},"a":{"ha":1110,"x_min":99,"x_max":1026,"o":"m 739 0 l 450 0 q 313 23 378 0 q 201 88 249 46 q 126 193 154 131 q 99 335 99 256 q 126 477 99 414 q 201 583 153 540 q 313 649 249 626 q 450 672 376 672 l 1026 672 l 1026 0 l 882 0 l 882 553 l 450 553 q 365 537 403 553 q 301 492 328 521 q 260 422 275 463 q 246 333 246 382 q 260 247 246 286 q 302 180 275 208 q 367 135 329 151 q 450 119 404 119 l 739 119 l 739 0 z "},"b":{"ha":1110,"x_min":119,"x_max":1047,"o":"m 119 0 l 119 972 l 264 972 l 264 119 l 696 119 q 846 181 792 119 q 900 340 900 243 q 885 426 900 388 q 844 494 871 465 q 779 538 817 522 q 696 553 742 553 l 407 553 l 407 672 l 696 672 q 833 650 769 672 q 944 585 897 628 q 1019 479 992 542 q 1047 338 1047 417 q 1020 196 1047 258 q 945 90 993 133 q 833 23 897 46 q 696 0 769 0 l 119 0 z "},"c":{"ha":1097,"x_min":99,"x_max":1014,"o":"m 1014 0 l 450 0 q 313 23 376 0 q 201 89 249 46 q 126 195 153 132 q 99 338 99 258 q 126 479 99 417 q 201 585 154 542 q 313 650 249 628 q 450 672 378 672 l 1006 672 l 1006 553 l 450 553 q 365 537 404 553 q 298 493 326 521 q 253 426 269 465 q 236 339 236 386 q 252 251 236 292 q 297 182 268 211 q 364 136 325 153 q 450 119 403 119 l 1014 119 l 1014 0 z "},"d":{"ha":1110,"x_min":99,"x_max":1026,"o":"m 882 119 l 882 972 l 1026 972 l 1026 0 l 450 0 q 313 23 376 0 q 201 90 249 46 q 126 196 153 133 q 99 338 99 258 q 126 479 99 417 q 201 585 154 542 q 313 650 249 628 q 450 672 378 672 l 739 672 l 739 553 l 450 553 q 367 538 404 553 q 302 494 329 522 q 260 426 275 465 q 246 340 246 388 q 260 252 246 293 q 301 182 275 211 q 365 136 328 153 q 450 119 403 119 l 882 119 z "},"e":{"ha":1097,"x_min":99,"x_max":1014,"o":"m 240 297 q 264 209 249 243 q 303 155 279 175 q 363 127 328 135 q 450 119 399 119 l 1014 119 l 1014 0 l 450 0 q 313 23 376 0 q 201 89 249 46 q 126 195 153 132 q 99 338 99 258 q 126 479 99 417 q 201 585 154 542 q 313 650 249 628 q 450 672 378 672 l 1006 672 l 1006 297 l 240 297 m 243 378 l 863 378 l 863 553 l 450 553 q 315 506 368 553 q 243 378 261 460 z "},"f":{"ha":872,"x_min":119,"x_max":779,"o":"m 119 0 l 119 561 q 216 872 119 771 q 515 972 313 972 l 779 972 l 779 853 l 515 853 q 425 844 467 853 q 351 815 383 836 q 298 760 319 794 q 265 672 276 725 l 715 672 l 715 553 l 264 553 l 264 0 l 119 0 z "},"g":{"ha":1110,"x_min":99,"x_max":1026,"o":"m 210 -318 l 210 -199 l 631 -199 q 795 -152 733 -199 q 882 0 857 -106 l 450 0 q 314 23 378 0 q 202 89 250 46 q 126 194 154 132 q 99 335 99 256 q 126 477 99 414 q 201 583 153 540 q 313 649 249 626 q 450 672 376 672 l 1026 672 l 1026 93 q 930 -217 1026 -117 q 631 -318 833 -318 l 210 -318 m 882 119 l 882 553 l 450 553 q 365 537 403 553 q 301 492 328 521 q 260 422 275 463 q 246 333 246 382 q 260 247 246 286 q 302 180 275 208 q 367 135 329 151 q 450 119 404 119 l 882 119 z "},"h":{"ha":1185,"x_min":119,"x_max":1104,"o":"m 119 0 l 119 972 l 264 972 l 264 494 q 331 563 297 531 q 401 620 364 596 q 481 658 439 644 q 575 672 524 672 l 793 672 q 933 657 875 672 q 1030 606 992 642 q 1086 512 1068 571 q 1104 367 1104 453 l 1104 0 l 960 0 l 960 367 q 916 508 960 463 q 779 553 872 553 l 576 553 q 502 538 533 553 q 440 493 471 522 l 264 321 l 264 0 l 119 0 z "},"i":{"ha":375,"x_min":119,"x_max":264,"o":"m 119 867 l 119 972 l 264 972 l 264 867 l 119 867 m 119 0 l 119 672 l 264 672 l 264 0 l 119 0 z "},"j":{"ha":375,"x_min":-303,"x_max":279,"o":"m 135 867 l 135 972 l 279 972 l 279 867 l 135 867 m -303 -318 l -303 -199 l -117 -199 q 71 -132 7 -199 q 135 63 135 -65 l 135 672 l 279 672 l 279 93 q 183 -217 279 -117 q -117 -318 86 -318 l -303 -318 z "},"k":{"ha":1136,"x_min":119,"x_max":1053,"o":"m 119 0 l 119 972 l 264 972 l 264 500 l 657 500 q 740 510 700 500 q 811 540 779 519 q 867 594 843 561 q 900 672 890 626 l 1043 672 q 1001 542 1032 597 q 913 440 971 486 q 994 349 965 400 q 1035 242 1022 299 q 1051 124 1049 185 q 1053 0 1053 63 l 908 0 l 908 118 q 844 314 908 247 q 657 381 781 381 l 264 381 l 264 0 l 119 0 z "},"l":{"ha":375,"x_min":119,"x_max":264,"o":"m 119 0 l 119 972 l 264 972 l 264 0 l 119 0 z "},"m":{"ha":1772,"x_min":119,"x_max":1714,"o":"m 119 0 l 119 672 l 264 672 l 264 494 q 364 592 322 557 q 448 645 406 628 q 544 667 490 663 q 678 672 597 672 q 760 668 718 672 q 842 649 803 664 q 912 609 881 635 q 961 539 943 583 l 981 489 q 1057 564 1025 533 q 1116 615 1089 594 q 1168 647 1143 635 q 1226 664 1193 658 q 1301 671 1258 669 q 1403 672 1343 672 q 1543 657 1485 672 q 1640 606 1601 642 q 1696 512 1678 571 q 1714 367 1714 453 l 1714 0 l 1569 0 l 1569 367 q 1551 471 1569 433 q 1501 526 1533 508 q 1423 549 1468 544 q 1324 553 1378 553 q 1238 542 1272 553 q 1165 493 1204 531 l 989 321 l 989 0 l 844 0 l 844 367 q 826 471 844 433 q 776 526 808 508 q 698 549 743 544 q 599 553 653 553 q 513 542 547 553 q 440 493 479 531 l 264 321 l 264 0 l 119 0 z "},"n":{"ha":1185,"x_min":119,"x_max":1104,"o":"m 119 0 l 119 672 l 264 672 l 264 494 q 331 563 297 531 q 401 620 364 596 q 481 658 439 644 q 575 672 524 672 l 793 672 q 933 657 875 672 q 1030 606 992 642 q 1086 512 1068 571 q 1104 367 1104 453 l 1104 0 l 960 0 l 960 367 q 916 508 960 463 q 779 553 872 553 l 576 553 q 502 538 533 553 q 440 493 471 522 l 264 321 l 264 0 l 119 0 z "},"o":{"ha":1238,"x_min":99,"x_max":1181,"o":"m 99 338 q 126 479 99 417 q 201 585 154 542 q 313 650 249 628 q 450 672 378 672 l 829 672 q 967 650 903 672 q 1078 585 1031 628 q 1153 479 1125 542 q 1181 338 1181 417 q 1153 196 1181 258 q 1078 90 1126 133 q 967 23 1031 46 q 829 0 903 0 l 450 0 q 313 23 376 0 q 201 90 249 46 q 126 196 153 133 q 99 338 99 258 m 450 119 l 829 119 q 914 136 876 119 q 978 182 951 153 q 1019 252 1004 211 q 1033 340 1033 293 q 1019 426 1033 388 q 977 494 1004 465 q 913 538 950 522 q 829 553 875 553 l 450 553 q 367 538 404 553 q 302 494 329 522 q 260 426 275 465 q 246 340 246 388 q 260 252 246 293 q 301 182 275 211 q 365 136 328 153 q 450 119 403 119 z "},"p":{"ha":1110,"x_min":119,"x_max":1047,"o":"m 119 -318 l 119 672 l 696 672 q 833 649 769 672 q 945 583 897 626 q 1020 477 993 540 q 1047 335 1047 414 q 1019 193 1047 256 q 944 88 992 131 q 833 23 897 46 q 696 0 769 0 l 407 0 l 407 119 l 696 119 q 779 135 742 119 q 844 180 817 151 q 885 247 871 208 q 900 333 900 286 q 846 492 900 431 q 696 553 792 553 l 264 553 l 264 -318 l 119 -318 z "},"q":{"ha":1110,"x_min":99,"x_max":1026,"o":"m 739 0 l 450 0 q 313 23 378 0 q 201 88 249 46 q 126 193 154 131 q 99 335 99 256 q 126 477 99 414 q 201 583 153 540 q 313 649 249 626 q 450 672 376 672 l 1026 672 l 1026 -318 l 882 -318 l 882 553 l 450 553 q 365 537 403 553 q 301 492 328 521 q 260 422 275 463 q 246 333 246 382 q 260 247 246 286 q 302 180 275 208 q 367 135 329 151 q 450 119 404 119 l 739 119 l 739 0 z "},"r":{"ha":989,"x_min":119,"x_max":922,"o":"m 119 0 l 119 672 l 264 672 l 264 494 q 331 564 299 532 q 401 620 364 596 q 480 658 438 644 q 575 672 522 672 l 922 672 l 922 553 l 576 553 q 502 538 535 553 q 440 493 469 522 l 264 321 l 264 0 l 119 0 z "},"s":{"ha":1076,"x_min":99,"x_max":1014,"o":"m 99 0 l 99 119 l 743 119 q 785 124 764 119 q 825 141 807 129 q 855 171 843 153 q 867 214 867 189 q 855 255 867 239 q 824 280 843 271 q 783 292 806 289 q 740 296 761 296 l 407 296 q 306 301 360 296 q 206 327 251 307 q 129 385 160 347 q 99 489 99 424 q 129 592 99 556 q 206 647 160 629 q 306 668 251 664 q 407 672 360 672 l 1014 672 l 1014 553 l 369 553 q 326 548 349 553 q 286 531 304 543 q 256 501 268 519 q 244 458 244 483 q 256 417 244 433 q 287 393 268 401 q 328 382 306 385 q 371 379 350 379 l 706 379 q 807 373 753 379 q 907 347 861 367 q 983 288 953 326 q 1014 183 1014 249 q 983 80 1014 117 q 907 26 953 43 q 807 4 861 8 q 706 0 753 0 l 99 0 z "},"t":{"ha":936,"x_min":106,"x_max":846,"o":"m 106 553 l 106 672 l 264 672 l 264 849 l 408 849 l 408 672 l 844 672 l 844 553 l 408 553 l 408 382 q 472 186 408 253 q 660 119 536 119 l 846 119 l 846 0 l 660 0 q 360 101 457 0 q 264 411 264 201 l 264 553 l 106 553 z "},"u":{"ha":1185,"x_min":119,"x_max":1104,"o":"m 119 672 l 264 672 l 264 307 q 307 165 264 210 q 443 119 350 119 l 647 119 q 720 135 689 119 q 782 179 751 150 l 960 353 l 960 672 l 1104 672 l 1104 0 l 960 0 l 960 178 q 888 110 918 142 q 826 53 858 78 q 752 15 793 29 q 649 0 711 0 l 429 0 q 290 16 349 0 q 194 68 232 32 q 138 163 156 104 q 119 307 119 221 l 119 672 z "},"v":{"ha":1236,"x_min":93,"x_max":1186,"o":"m 93 672 l 247 672 l 407 214 q 458 144 422 169 q 539 119 493 119 l 740 119 q 822 144 786 119 q 872 214 857 169 l 1032 672 l 1186 672 l 990 117 q 831 0 950 0 l 447 0 q 289 117 329 0 l 93 672 z "},"w":{"ha":1778,"x_min":93,"x_max":1749,"o":"m 93 672 l 247 672 l 407 214 q 458 145 422 171 q 539 119 494 119 q 618 145 582 119 q 669 214 654 171 l 829 672 l 1011 672 l 1171 214 q 1222 145 1186 171 q 1303 119 1258 119 q 1382 145 1346 119 q 1433 214 1418 171 l 1593 672 l 1749 672 l 1551 117 q 1393 0 1513 0 l 1211 0 q 1053 117 1093 0 l 921 493 l 788 117 q 629 0 749 0 l 447 0 q 289 117 329 0 l 93 672 z "},"x":{"ha":1194,"x_min":119,"x_max":1114,"o":"m 119 0 l 119 65 q 145 222 119 157 q 242 344 171 288 q 171 415 196 381 q 135 489 146 450 q 122 572 124 528 q 119 672 119 617 l 264 672 l 264 603 q 285 506 264 544 q 342 446 307 468 q 423 415 378 424 q 515 406 468 406 l 717 406 q 810 415 765 406 q 891 446 856 424 q 948 506 926 468 q 969 603 969 544 l 969 672 l 1114 672 l 1114 613 q 1108 530 1114 567 q 1088 461 1101 493 q 1050 401 1074 429 q 992 344 1026 372 q 1063 269 1038 307 q 1099 191 1088 232 q 1113 103 1111 150 q 1114 0 1114 57 l 969 0 l 969 78 q 949 176 969 136 q 893 241 928 217 q 813 276 858 265 q 717 286 767 286 l 515 286 q 420 276 465 286 q 340 241 375 265 q 285 176 306 217 q 264 78 264 136 l 264 0 l 119 0 z "},"y":{"ha":1185,"x_min":119,"x_max":1104,"o":"m 286 -318 l 286 -199 l 707 -199 q 896 -132 832 -199 q 960 63 960 -65 l 960 178 q 919 139 938 160 q 881 99 900 118 q 774 24 826 49 q 649 0 722 0 l 429 0 q 290 16 349 0 q 194 68 232 32 q 138 163 156 104 q 119 307 119 221 l 119 672 l 264 672 l 264 307 q 307 165 264 210 q 443 119 350 119 l 647 119 q 720 135 688 119 q 782 179 753 150 l 960 353 l 960 672 l 1104 672 l 1104 93 q 1007 -217 1104 -117 q 707 -318 910 -318 l 286 -318 z "},"z":{"ha":1163,"x_min":119,"x_max":1081,"o":"m 119 0 l 119 53 q 151 186 119 133 q 235 272 183 239 q 355 324 288 306 q 494 356 422 343 q 635 382 565 369 q 761 415 704 394 q 857 467 818 435 q 906 553 896 499 l 128 553 l 128 672 l 1072 672 l 1072 660 q 1039 498 1072 564 q 951 388 1006 432 q 825 316 896 343 q 681 272 754 289 q 536 242 607 254 q 410 215 465 231 q 319 178 354 200 q 283 119 285 157 l 1081 119 l 1081 0 l 119 0 z "},"{":{"ha":678,"x_min":119,"x_max":506,"o":"m 399 -61 q 358 -17 374 -44 q 328 46 342 11 q 306 119 315 81 q 286 196 297 158 q 263 269 276 233 q 231 335 250 306 q 185 386 213 365 q 119 414 158 407 l 119 540 q 185 568 158 547 q 231 619 213 589 q 263 685 250 649 q 286 758 276 721 q 307 835 297 796 q 329 910 317 874 q 358 972 342 944 q 399 1015 375 999 l 506 1015 q 442 897 465 964 q 397 761 418 831 q 378 695 389 731 q 354 624 368 660 q 323 557 340 589 q 285 501 306 525 l 264 478 l 285 453 q 323 397 306 429 q 354 330 340 365 q 378 259 368 294 q 397 193 389 224 q 442 57 418 124 q 506 -61 465 -10 l 399 -61 z "},"|":{"ha":375,"x_min":119,"x_max":264,"o":"m 119 -61 l 119 1015 l 264 1015 l 264 -61 l 119 -61 z "},"}":{"ha":678,"x_min":190,"x_max":576,"o":"m 190 -61 q 254 57 231 -10 q 299 193 278 124 q 320 267 310 231 q 344 336 331 303 q 374 399 358 369 q 411 453 389 429 l 433 478 l 411 501 q 374 555 389 525 q 344 618 358 585 q 320 688 331 651 q 299 761 310 724 q 254 897 278 831 q 190 1015 231 964 l 297 1015 q 339 971 322 999 q 368 910 356 943 q 390 835 381 874 q 410 758 400 796 q 433 685 421 721 q 465 619 446 649 q 510 568 483 589 q 576 540 538 547 l 576 414 q 510 386 538 407 q 465 335 483 365 q 433 269 446 306 q 410 196 421 233 q 390 119 400 158 q 368 46 381 81 q 339 -17 356 11 q 297 -61 322 -44 l 190 -61 z "},"~":{"ha":765,"x_min":119,"x_max":668,"o":"m 119 596 q 174 632 149 621 q 238 643 199 643 q 314 631 276 643 q 352 619 333 626 q 390 606 371 613 q 468 580 428 592 q 551 568 508 568 q 668 600 617 568 l 668 546 q 617 506 643 518 q 554 493 590 493 q 516 497 535 493 q 478 506 497 500 q 440 517 458 510 q 401 531 421 524 q 324 556 364 544 q 240 568 283 568 q 178 561 208 568 q 119 538 147 554 l 119 596 z "},"¡":{"ha":375,"x_min":119,"x_max":264,"o":"m 126 554 l 126 672 l 256 672 l 256 554 l 126 554 m 119 -299 l 133 346 l 249 346 l 264 -299 l 119 -299 z "},"¢":{"ha":1046,"x_min":119,"x_max":960,"o":"m 531 0 l 531 150 l 522 150 q 468 150 494 150 q 415 153 442 150 q 294 189 349 161 q 201 260 240 217 q 141 362 163 304 q 119 488 119 419 q 141 613 119 556 q 201 713 163 669 q 295 784 240 757 q 415 819 350 811 q 468 822 442 822 q 522 822 494 822 l 531 822 l 531 972 l 674 972 l 674 822 l 953 822 l 953 703 l 471 703 q 388 687 425 703 q 323 643 350 671 q 281 576 296 615 q 267 489 267 536 q 281 401 267 442 q 322 332 296 361 q 386 286 349 303 q 471 269 424 269 l 960 269 l 960 150 l 674 150 l 674 0 l 531 0 z "},"£":{"ha":1082,"x_min":119,"x_max":997,"o":"m 172 0 l 243 140 q 262 178 253 160 q 278 215 271 196 q 289 256 285 236 q 293 300 293 276 q 285 365 293 336 q 267 425 278 393 l 264 429 l 119 429 l 119 549 l 200 549 l 199 558 q 193 589 196 574 q 188 619 190 604 q 181 681 181 651 q 202 804 181 750 q 263 896 224 858 q 356 953 301 933 q 475 972 410 972 l 989 972 l 989 853 l 501 853 q 433 842 465 853 q 378 812 401 832 q 341 761 354 792 q 328 689 328 731 q 338 619 328 651 q 361 553 349 588 l 364 549 l 786 549 l 786 429 l 413 429 l 415 421 q 420 381 418 400 q 422 342 422 361 q 406 232 422 278 q 361 131 389 186 l 357 119 l 997 119 l 997 0 l 172 0 z "},"¤":{"ha":908,"x_min":133,"x_max":803,"o":"m 215 139 l 133 225 l 190 283 l 188 288 q 168 327 176 310 q 154 362 160 344 q 146 398 149 379 q 143 442 143 417 l 143 532 q 145 576 143 557 q 153 612 147 594 q 166 647 158 629 q 185 686 174 665 l 189 690 l 133 747 l 215 833 l 293 750 l 314 754 q 410 764 363 763 q 506 765 457 765 q 572 761 540 765 q 638 750 604 757 l 642 750 l 719 833 l 803 747 l 747 690 l 750 686 q 769 647 761 665 q 783 612 778 629 q 790 576 788 594 q 792 532 792 557 l 792 442 q 782 361 792 393 q 747 289 772 329 l 744 283 l 803 225 l 719 139 l 639 224 l 635 224 q 582 213 608 217 q 528 208 556 208 l 431 208 q 365 213 397 208 q 300 224 333 217 l 296 224 l 215 139 m 288 447 q 301 388 288 411 q 338 351 315 365 q 388 333 360 338 q 442 328 415 328 l 496 328 q 549 333 522 328 q 599 351 576 338 q 635 388 621 365 q 649 447 649 411 l 649 525 q 635 585 649 561 q 600 622 622 608 q 551 640 578 635 q 496 646 524 646 l 442 646 q 386 640 414 646 q 337 622 358 635 q 301 585 315 608 q 288 525 288 561 l 288 447 z "},"¥":{"ha":1194,"x_min":119,"x_max":1114,"o":"m 544 0 l 544 79 l 271 79 l 271 199 l 544 199 l 544 222 l 271 222 l 271 342 l 544 342 l 544 371 l 538 371 q 224 464 329 365 q 119 782 119 563 l 119 971 l 264 971 l 264 751 q 328 556 264 622 q 517 490 392 490 l 718 490 q 906 556 842 490 q 969 751 969 622 l 969 971 l 1114 971 l 1114 782 q 1010 464 1114 563 q 696 371 906 365 l 689 371 l 689 342 l 925 342 l 925 222 l 689 222 l 689 199 l 925 199 l 925 79 l 689 79 l 689 0 l 544 0 z "},"¦":{"ha":375,"x_min":119,"x_max":264,"o":"m 119 667 l 119 1015 l 264 1015 l 264 667 l 119 667 m 119 -61 l 119 288 l 264 288 l 264 -61 l 119 -61 z "},"§":{"ha":781,"x_min":119,"x_max":685,"o":"m 119 185 l 119 233 l 524 233 q 585 251 556 233 q 615 308 615 269 q 607 342 615 328 q 585 364 599 356 q 556 376 572 372 q 524 381 539 381 l 282 381 q 201 381 242 381 q 119 382 160 382 l 119 486 q 135 543 119 525 q 176 585 150 561 q 135 626 150 608 q 119 683 119 644 q 138 743 119 722 q 185 774 157 764 q 245 785 213 783 q 306 788 278 788 l 685 788 l 685 738 l 281 738 q 219 720 249 738 q 189 664 189 703 q 219 608 189 625 q 281 590 249 590 l 685 590 l 685 486 q 681 451 685 465 q 668 428 676 438 q 649 409 660 418 q 622 388 638 400 q 649 366 638 375 q 668 347 660 357 q 681 324 676 338 q 685 289 685 310 q 666 229 685 250 q 619 199 647 208 q 559 187 592 189 q 499 185 526 185 l 119 185 m 186 432 l 499 432 q 553 436 531 432 q 589 452 575 440 q 609 485 603 464 q 617 542 615 507 l 306 542 q 251 538 274 542 q 215 522 229 533 q 195 488 201 510 q 186 432 189 467 z "},"¨":{"ha":674,"x_min":119,"x_max":574,"o":"m 119 854 l 119 972 l 249 972 l 249 854 l 119 854 m 443 854 l 443 972 l 574 972 l 574 854 l 443 854 z "},"©":{"ha":906,"x_min":121,"x_max":813,"o":"m 121 619 l 121 733 q 152 865 121 818 q 233 934 183 911 q 344 962 282 957 q 468 967 406 967 q 594 961 532 967 q 704 933 656 956 q 783 863 753 910 q 813 733 813 815 l 813 619 q 782 490 813 536 q 702 422 751 444 q 591 394 653 399 q 468 389 529 389 q 342 394 404 389 q 231 422 279 399 q 151 490 182 444 q 121 619 121 536 m 182 624 q 203 531 182 567 q 258 476 224 496 q 338 450 293 457 q 429 443 382 443 l 506 443 q 597 450 553 443 q 676 476 642 457 q 733 531 711 496 q 754 624 754 567 l 754 726 q 733 819 754 783 q 676 875 711 854 q 597 903 642 896 q 506 911 553 911 l 429 911 q 338 903 382 911 q 258 875 293 896 q 203 819 224 854 q 182 726 182 783 l 182 624 m 668 518 l 396 518 q 274 560 324 518 q 225 681 225 603 q 275 801 225 758 q 396 843 325 843 l 664 843 l 664 785 l 396 785 q 322 756 351 785 q 292 682 292 728 q 321 606 292 636 q 396 575 350 575 l 668 575 l 668 518 z "},"ª":{"ha":656,"x_min":99,"x_max":556,"o":"m 413 642 l 272 642 q 205 653 236 642 q 150 685 174 664 q 113 736 126 706 q 99 806 99 767 q 112 876 99 846 q 149 928 125 907 q 204 961 172 950 q 272 972 236 972 l 556 972 l 556 642 l 485 642 l 485 914 l 272 914 q 198 883 225 914 q 171 804 171 851 q 199 729 171 758 q 272 700 228 700 l 413 700 l 413 642 z "},"«":{"ha":835,"x_min":128,"x_max":728,"o":"m 328 97 l 128 376 l 328 657 l 418 581 l 272 376 l 418 174 l 328 97 m 638 97 l 438 376 l 638 657 l 728 581 l 582 376 l 728 174 l 638 97 z "},"¬":{"ha":808,"x_min":119,"x_max":713,"o":"m 119 426 l 119 546 l 713 546 l 713 235 l 569 235 l 569 426 l 119 426 z "},"®":{"ha":906,"x_min":121,"x_max":813,"o":"m 121 619 l 121 733 q 152 865 121 818 q 233 934 183 911 q 344 962 282 957 q 468 967 406 967 q 594 961 532 967 q 704 933 656 956 q 783 863 753 910 q 813 733 813 815 l 813 619 q 782 490 813 536 q 702 422 751 444 q 591 394 653 399 q 468 389 529 389 q 342 394 404 389 q 231 422 279 399 q 151 490 182 444 q 121 619 121 536 m 182 624 q 203 531 182 567 q 258 476 224 496 q 338 450 293 457 q 429 443 382 443 l 506 443 q 597 450 553 443 q 676 476 642 457 q 733 531 711 496 q 754 624 754 567 l 754 726 q 733 819 754 783 q 676 875 711 854 q 597 903 642 896 q 506 911 553 911 l 429 911 q 338 903 382 911 q 258 875 293 896 q 203 819 224 854 q 182 726 182 783 l 182 624 m 282 493 l 282 868 l 560 868 q 640 840 606 868 q 674 761 674 811 q 670 733 674 744 q 661 712 667 721 q 648 694 656 703 q 631 674 640 685 q 665 621 656 646 q 674 557 674 596 l 674 493 l 618 493 q 618 554 618 525 q 610 606 618 583 q 581 642 601 629 q 521 656 561 656 l 338 656 l 338 493 l 282 493 m 338 701 l 560 701 q 601 718 585 701 q 617 761 617 735 q 601 804 617 786 q 560 822 586 822 l 338 822 l 338 701 z "},"¯":{"ha":763,"x_min":119,"x_max":665,"o":"m 119 1046 l 119 1167 l 665 1167 l 665 1046 l 119 1046 z "},"°":{"ha":544,"x_min":119,"x_max":439,"o":"m 119 813 l 119 864 q 134 925 119 903 q 172 958 149 947 q 223 970 194 968 q 281 972 251 972 q 338 969 310 972 q 389 956 367 967 q 425 924 411 946 q 439 864 439 901 l 439 813 q 424 751 439 774 q 386 719 410 729 q 333 706 363 708 q 275 704 304 704 q 217 707 246 704 q 167 721 189 710 q 133 753 146 732 q 119 813 119 775 m 165 817 q 196 759 165 772 q 265 746 226 746 l 294 746 q 364 759 333 746 q 394 817 394 772 l 394 858 q 364 915 394 903 q 294 926 333 926 l 265 926 q 196 915 226 926 q 165 858 165 903 l 165 817 z "},"±":{"ha":867,"x_min":119,"x_max":774,"o":"m 119 522 l 119 642 l 389 642 l 389 921 l 504 921 l 504 642 l 774 642 l 774 522 l 504 522 l 504 243 l 389 243 l 389 522 l 119 522 m 119 18 l 119 138 l 774 138 l 774 18 l 119 18 z "},"²":{"ha":513,"x_min":119,"x_max":403,"o":"m 168 683 l 392 683 l 392 643 l 156 643 q 119 681 119 643 l 119 761 q 156 799 119 799 l 285 799 q 335 816 317 799 q 353 868 353 833 q 338 915 353 897 q 293 932 322 932 l 129 932 l 129 972 l 303 972 q 378 941 354 972 q 403 860 403 910 q 378 783 403 807 q 303 758 353 758 l 168 758 l 168 683 z "},"³":{"ha":503,"x_min":119,"x_max":388,"o":"m 119 635 l 119 676 l 285 676 q 322 692 308 676 q 336 729 336 707 q 322 768 336 753 q 285 783 308 783 l 153 783 l 153 825 l 267 825 q 302 840 288 825 q 317 878 317 854 q 302 916 317 901 q 267 931 288 931 l 119 931 l 119 972 l 267 972 q 337 948 307 972 q 367 878 367 924 q 360 843 367 858 q 343 813 354 828 q 376 777 364 796 q 388 729 388 758 q 358 660 388 685 q 285 635 328 635 l 119 635 z "},"´":{"ha":506,"x_min":147,"x_max":369,"o":"m 147 826 l 235 972 l 369 972 l 283 826 l 147 826 z "},"¶":{"ha":1153,"x_min":119,"x_max":1108,"o":"m 842 -207 l 842 421 l 414 421 q 301 439 354 421 q 207 492 247 457 q 143 578 167 528 q 119 694 119 629 q 143 811 119 760 q 207 898 167 863 q 301 952 247 933 q 414 971 354 971 l 1108 971 l 1108 -207 l 1046 -207 l 1046 896 l 914 896 l 914 -207 l 842 -207 z "},"·":{"ha":361,"x_min":119,"x_max":249,"o":"m 119 428 l 119 546 l 249 546 l 249 428 l 119 428 z "},"¸":{"ha":524,"x_min":122,"x_max":418,"o":"m 122 -303 l 122 -258 l 322 -258 q 358 -242 346 -258 q 371 -201 371 -225 q 358 -160 371 -178 q 322 -142 346 -142 l 135 -142 l 183 14 l 229 14 l 194 -97 l 315 -97 q 355 -99 336 -96 q 388 -115 374 -103 q 410 -147 401 -126 q 418 -200 418 -167 q 393 -280 418 -257 q 315 -303 368 -303 l 122 -303 z "},"¹":{"ha":363,"x_min":119,"x_max":250,"o":"m 207 643 l 207 942 l 119 942 l 119 972 l 250 972 l 250 643 l 207 643 z "},"º":{"ha":569,"x_min":119,"x_max":440,"o":"m 119 751 l 119 864 q 133 924 119 903 q 169 956 147 946 q 220 969 192 967 q 276 971 249 971 q 335 969 306 971 q 388 956 365 967 q 426 924 411 946 q 440 864 440 903 l 440 751 q 426 691 440 713 q 390 659 413 669 q 338 647 367 649 q 282 644 310 644 q 224 647 253 644 q 172 659 194 649 q 134 691 149 669 q 119 751 119 713 m 165 756 q 174 719 165 733 q 197 699 182 706 q 229 689 211 692 q 265 686 247 686 l 296 686 q 333 689 315 686 q 364 699 350 692 q 386 719 378 706 q 394 756 394 733 l 394 858 q 386 894 394 881 q 364 915 378 907 q 333 924 350 922 q 296 926 315 926 l 265 926 q 229 924 247 926 q 197 915 211 922 q 174 894 182 907 q 165 858 165 881 l 165 756 z "},"»":{"ha":835,"x_min":132,"x_max":732,"o":"m 442 174 l 588 376 l 442 581 l 532 657 l 732 376 l 532 97 l 442 174 m 132 174 l 278 376 l 132 581 l 221 657 l 422 376 l 221 97 l 132 174 z "},"¼":{"ha":1653,"x_min":119,"x_max":1589,"o":"m 988 244 l 988 672 l 1131 672 l 1131 364 l 1446 364 l 1446 672 l 1589 672 l 1589 0 l 1446 0 l 1446 244 l 988 244 m 243 300 l 243 853 l 119 853 l 119 972 l 388 972 l 388 300 l 243 300 m 440 0 l 800 972 l 925 972 l 567 0 l 440 0 z "},"½":{"ha":1701,"x_min":119,"x_max":1640,"o":"m 1094 119 l 1607 119 l 1607 0 l 1056 0 q 1014 3 1033 0 q 980 15 994 7 q 957 39 965 24 q 949 78 949 54 l 949 261 q 973 347 949 321 q 1056 372 997 372 l 1347 372 q 1392 375 1367 372 q 1439 388 1417 378 q 1477 415 1461 397 q 1493 463 1493 432 q 1481 506 1493 489 q 1449 534 1468 524 q 1408 549 1431 544 q 1368 553 1386 553 l 976 553 l 976 672 l 1364 672 q 1483 666 1431 672 q 1569 637 1535 660 q 1622 569 1604 614 q 1640 447 1640 525 q 1635 372 1640 404 q 1616 317 1631 340 q 1575 281 1601 294 q 1506 261 1549 267 q 1438 254 1472 256 q 1371 253 1404 253 l 1090 253 l 1094 119 m 243 300 l 243 853 l 119 853 l 119 972 l 388 972 l 388 300 l 243 300 m 440 0 l 800 972 l 925 972 l 567 0 l 440 0 z "},"¾":{"ha":1889,"x_min":119,"x_max":1835,"o":"m 119 300 l 119 419 l 514 419 q 551 423 533 419 q 583 435 569 426 q 606 460 597 444 q 615 501 615 476 q 606 540 615 525 q 583 565 597 556 q 552 577 569 574 q 517 581 535 581 l 215 581 l 215 700 l 463 700 q 497 703 479 700 q 527 714 514 706 q 549 737 540 722 q 557 776 557 751 q 548 815 557 800 q 524 839 539 831 q 492 850 510 847 q 458 853 475 853 l 119 853 l 119 972 l 490 972 q 643 924 582 972 q 704 776 704 876 q 698 724 704 750 q 685 672 692 697 l 683 668 l 688 665 q 744 594 726 629 q 763 501 763 558 q 746 413 763 450 q 700 350 729 375 q 631 313 671 325 q 543 300 590 300 l 119 300 m 726 0 l 1085 972 l 1210 972 l 851 0 l 726 0 m 1232 244 l 1232 672 l 1376 672 l 1376 364 l 1690 364 l 1690 672 l 1835 672 l 1835 0 l 1690 0 l 1690 244 l 1232 244 z "},"¿":{"ha":1021,"x_min":119,"x_max":933,"o":"m 804 554 l 804 672 l 933 672 l 933 554 l 804 554 m 926 -299 l 413 -299 q 297 -286 350 -299 q 203 -244 243 -274 q 142 -167 164 -215 q 119 -49 119 -119 q 142 69 119 22 q 203 144 164 117 q 297 184 243 172 q 413 196 350 196 l 814 196 l 813 346 l 928 346 l 928 189 q 903 103 928 129 q 819 76 878 76 l 438 76 q 378 72 408 76 q 324 54 349 68 q 283 16 299 40 q 267 -47 267 -8 q 283 -113 267 -87 q 324 -153 299 -139 q 379 -174 349 -168 q 439 -179 410 -179 l 926 -179 l 926 -299 z "},"À":{"ha":1275,"x_min":93,"x_max":1226,"o":"m 635 1081 l 549 1226 l 685 1226 l 771 1081 l 635 1081 m 93 0 l 382 786 q 639 972 449 972 l 681 972 q 938 786 871 972 l 1226 0 l 1071 0 l 956 314 l 564 314 l 608 433 l 913 433 l 796 758 q 657 853 758 853 q 524 758 560 853 l 249 0 l 93 0 z "},"Á":{"ha":1275,"x_min":93,"x_max":1226,"o":"m 93 0 l 382 786 q 431 881 403 844 q 497 937 460 917 q 579 965 533 957 q 681 972 625 972 q 938 786 869 972 l 1226 0 l 1071 0 l 956 314 l 564 314 l 608 433 l 913 433 l 796 758 q 742 829 778 806 q 657 853 706 853 q 575 828 610 853 q 524 758 540 804 l 249 0 l 93 0 m 526 1104 l 614 1250 l 749 1250 l 663 1104 l 526 1104 z "},"Â":{"ha":1275,"x_min":93,"x_max":1226,"o":"m 93 0 l 382 786 q 431 881 403 844 q 497 937 460 917 q 579 965 533 957 q 681 972 625 972 q 938 786 869 972 l 1226 0 l 1071 0 l 956 314 l 564 314 l 608 433 l 913 433 l 796 758 q 742 829 778 806 q 657 853 706 853 q 575 828 610 853 q 524 758 540 804 l 249 0 l 93 0 m 461 1104 l 547 1250 l 728 1250 l 814 1104 l 689 1104 l 660 1204 l 622 1204 l 588 1104 l 461 1104 z "},"Ã":{"ha":1275,"x_min":93,"x_max":1226,"o":"m 93 0 l 382 786 q 431 881 403 844 q 497 937 460 917 q 579 965 533 957 q 681 972 625 972 q 938 786 869 972 l 1226 0 l 1071 0 l 956 314 l 564 314 l 608 433 l 913 433 l 796 758 q 742 829 778 806 q 657 853 706 853 q 575 828 610 853 q 524 758 540 804 l 249 0 l 93 0 m 442 1201 q 485 1235 464 1221 q 535 1250 507 1250 q 558 1247 547 1250 q 581 1239 569 1243 q 605 1227 593 1233 q 629 1214 617 1221 q 682 1187 654 1199 q 742 1175 710 1175 q 790 1182 769 1175 q 833 1204 811 1189 l 833 1153 q 794 1115 814 1129 q 746 1100 774 1100 q 696 1112 721 1100 q 650 1136 671 1124 q 597 1163 625 1151 q 538 1175 569 1175 q 487 1167 511 1175 q 442 1143 463 1158 l 442 1201 z "},"Ä":{"ha":1275,"x_min":93,"x_max":1226,"o":"m 93 0 l 382 786 q 431 881 403 844 q 497 937 460 917 q 579 965 533 957 q 681 972 625 972 q 938 786 869 972 l 1226 0 l 1071 0 l 956 314 l 564 314 l 608 433 l 913 433 l 796 758 q 742 829 778 806 q 657 853 706 853 q 575 828 610 853 q 524 758 540 804 l 249 0 l 93 0 m 411 1132 l 411 1250 l 540 1250 l 540 1132 l 411 1132 m 735 1132 l 735 1250 l 865 1250 l 865 1132 l 735 1132 z "},"Å":{"ha":1275,"x_min":93,"x_max":1226,"o":"m 93 0 l 382 786 q 431 881 403 844 q 497 937 460 917 q 579 965 533 957 q 681 972 625 972 q 938 786 869 972 l 1226 0 l 1071 0 l 956 314 l 564 314 l 608 433 l 913 433 l 796 758 q 742 829 778 806 q 657 853 706 853 q 575 828 610 853 q 524 758 540 804 l 249 0 l 93 0 m 478 1090 l 478 1142 q 492 1203 478 1181 q 530 1235 507 1225 q 581 1248 553 1246 q 639 1250 610 1250 q 697 1247 668 1250 q 747 1234 725 1244 q 783 1201 769 1224 q 797 1142 797 1179 l 797 1090 q 783 1029 797 1051 q 744 997 768 1007 q 692 984 721 986 q 633 982 663 982 q 576 985 604 982 q 526 999 547 988 q 491 1031 504 1010 q 478 1090 478 1053 m 524 1094 q 554 1037 524 1050 q 624 1024 585 1024 l 653 1024 q 722 1037 692 1024 q 753 1094 753 1050 l 753 1136 q 722 1192 753 1181 q 653 1204 692 1204 l 624 1204 q 554 1192 585 1204 q 524 1136 524 1181 l 524 1094 z "},"Æ":{"ha":1708,"x_min":93,"x_max":1649,"o":"m 93 0 l 382 786 q 639 972 449 972 l 1649 972 l 1649 853 l 1108 853 q 919 785 982 853 q 856 588 856 717 l 856 550 l 1560 550 l 1560 431 l 856 431 l 856 382 q 919 186 856 253 q 1108 119 983 119 l 1649 119 l 1649 0 l 1108 0 q 808 101 906 0 q 711 411 711 201 l 711 561 q 715 639 711 604 q 726 706 718 674 q 748 772 735 739 q 779 842 761 804 l 785 853 l 657 853 q 524 758 560 853 l 249 0 l 93 0 z "},"Ç":{"ha":1118,"x_min":99,"x_max":1035,"o":"m 1035 0 l 494 0 q 195 101 292 0 q 99 411 99 201 l 99 561 q 195 872 99 771 q 494 972 292 972 l 1035 972 l 1035 853 l 494 853 q 307 786 371 853 q 243 590 243 719 l 243 382 q 307 186 243 253 q 494 119 371 119 l 1035 119 l 1035 0 m 411 -303 l 411 -258 l 611 -258 q 647 -242 635 -258 q 660 -201 660 -225 q 647 -160 660 -178 q 611 -142 635 -142 l 424 -142 l 472 14 l 518 14 l 483 -97 l 604 -97 q 644 -99 625 -96 q 676 -115 663 -103 q 699 -147 690 -126 q 707 -200 707 -167 q 682 -280 707 -257 q 604 -303 657 -303 l 411 -303 z "},"È":{"ha":1118,"x_min":99,"x_max":1035,"o":"m 243 431 l 243 382 q 307 186 243 253 q 494 119 371 119 l 1035 119 l 1035 0 l 494 0 q 195 101 292 0 q 99 411 99 201 l 99 561 q 195 872 99 771 q 494 972 292 972 l 1035 972 l 1035 853 l 494 853 q 372 831 421 853 q 295 770 324 810 q 255 675 267 731 q 243 550 243 619 l 946 550 l 946 431 l 243 431 m 535 1104 l 447 1250 l 583 1250 l 669 1104 l 535 1104 z "},"É":{"ha":1118,"x_min":99,"x_max":1035,"o":"m 243 431 l 243 382 q 307 186 243 253 q 494 119 371 119 l 1035 119 l 1035 0 l 494 0 q 195 101 292 0 q 99 411 99 201 l 99 561 q 195 872 99 771 q 494 972 292 972 l 1035 972 l 1035 853 l 494 853 q 372 831 421 853 q 295 770 324 810 q 255 675 267 731 q 243 550 243 619 l 946 550 l 946 431 l 243 431 m 447 1104 l 535 1250 l 669 1250 l 583 1104 l 447 1104 z "},"Ê":{"ha":1118,"x_min":99,"x_max":1035,"o":"m 243 431 l 243 382 q 307 186 243 253 q 494 119 371 119 l 1035 119 l 1035 0 l 494 0 q 195 101 292 0 q 99 411 99 201 l 99 561 q 195 872 99 771 q 494 972 292 972 l 1035 972 l 1035 853 l 494 853 q 372 831 421 853 q 295 770 324 810 q 255 675 267 731 q 243 550 243 619 l 946 550 l 946 431 l 243 431 m 382 1104 l 468 1250 l 649 1250 l 735 1104 l 610 1104 l 581 1204 l 543 1204 l 508 1104 l 382 1104 z "},"Ë":{"ha":1118,"x_min":99,"x_max":1035,"o":"m 243 431 l 243 382 q 307 186 243 253 q 494 119 371 119 l 1035 119 l 1035 0 l 494 0 q 195 101 292 0 q 99 411 99 201 l 99 561 q 195 872 99 771 q 494 972 292 972 l 1035 972 l 1035 853 l 494 853 q 372 831 421 853 q 295 770 324 810 q 255 675 267 731 q 243 550 243 619 l 946 550 l 946 431 l 243 431 m 332 1132 l 332 1250 l 461 1250 l 461 1132 l 332 1132 m 656 1132 l 656 1250 l 786 1250 l 786 1132 l 656 1132 z "},"Ì":{"ha":917,"x_min":119,"x_max":825,"o":"m 119 0 l 119 119 l 407 119 l 407 853 l 119 853 l 119 972 l 825 972 l 825 853 l 551 853 l 551 119 l 825 119 l 825 0 l 119 0 m 435 1104 l 347 1250 l 483 1250 l 569 1104 l 435 1104 z "},"Í":{"ha":917,"x_min":119,"x_max":825,"o":"m 119 0 l 119 119 l 407 119 l 407 853 l 119 853 l 119 972 l 825 972 l 825 853 l 551 853 l 551 119 l 825 119 l 825 0 l 119 0 m 347 1104 l 435 1250 l 569 1250 l 483 1104 l 347 1104 z "},"Î":{"ha":917,"x_min":119,"x_max":825,"o":"m 119 0 l 119 119 l 407 119 l 407 853 l 119 853 l 119 972 l 825 972 l 825 853 l 551 853 l 551 119 l 825 119 l 825 0 l 119 0 m 282 1104 l 368 1250 l 549 1250 l 635 1104 l 510 1104 l 481 1204 l 443 1204 l 408 1104 l 282 1104 z "},"Ï":{"ha":917,"x_min":119,"x_max":825,"o":"m 119 0 l 119 119 l 407 119 l 407 853 l 119 853 l 119 972 l 825 972 l 825 853 l 551 853 l 551 119 l 825 119 l 825 0 l 119 0 m 232 1132 l 232 1250 l 361 1250 l 361 1132 l 232 1132 m 556 1132 l 556 1250 l 686 1250 l 686 1132 l 556 1132 z "},"Ð":{"ha":1133,"x_min":50,"x_max":1075,"o":"m 122 0 l 122 428 l 50 428 l 50 547 l 122 547 l 122 972 l 678 972 q 978 872 881 972 q 1075 561 1075 771 l 1075 411 q 978 101 1075 201 q 678 0 881 0 l 122 0 m 265 119 l 678 119 q 867 186 803 119 q 931 382 931 253 l 931 590 q 867 786 931 719 q 678 853 803 853 l 265 853 l 265 547 l 442 547 l 442 428 l 265 428 l 265 119 z "},"Ñ":{"ha":1182,"x_min":119,"x_max":1101,"o":"m 119 0 l 119 972 l 675 972 q 864 952 783 972 q 997 884 944 932 q 1076 757 1050 836 q 1101 561 1101 678 l 1101 0 l 957 0 l 957 561 q 942 676 957 624 q 895 769 926 729 q 817 831 864 808 q 704 853 769 853 l 264 853 l 264 0 l 119 0 m 396 1201 q 440 1235 418 1221 q 489 1250 461 1250 q 513 1247 501 1250 q 535 1239 524 1243 q 559 1227 547 1233 q 583 1214 571 1221 q 636 1187 608 1199 q 696 1175 664 1175 q 744 1182 724 1175 q 788 1204 765 1189 l 788 1153 q 748 1115 768 1129 q 700 1100 728 1100 q 650 1112 675 1100 q 604 1136 625 1124 q 551 1163 579 1151 q 492 1175 524 1175 q 441 1167 465 1175 q 396 1143 417 1158 l 396 1201 z "},"Ò":{"ha":1274,"x_min":99,"x_max":1218,"o":"m 494 0 q 195 101 292 0 q 99 411 99 201 l 99 561 q 195 872 99 771 q 494 972 292 972 l 822 972 q 1122 872 1025 972 q 1218 561 1218 771 l 1218 411 q 1122 101 1218 201 q 822 0 1025 0 l 494 0 m 243 382 q 307 186 243 253 q 494 119 371 119 l 822 119 q 1010 186 946 119 q 1074 382 1074 253 l 1074 590 q 1010 786 1074 719 q 822 853 946 853 l 494 853 q 307 786 371 853 q 243 590 243 719 l 243 382 m 613 1104 l 525 1250 l 661 1250 l 747 1104 l 613 1104 z "},"Ó":{"ha":1274,"x_min":99,"x_max":1218,"o":"m 494 0 q 195 101 292 0 q 99 411 99 201 l 99 561 q 195 872 99 771 q 494 972 292 972 l 822 972 q 1122 872 1025 972 q 1218 561 1218 771 l 1218 411 q 1122 101 1218 201 q 822 0 1025 0 l 494 0 m 243 382 q 307 186 243 253 q 494 119 371 119 l 822 119 q 1010 186 946 119 q 1074 382 1074 253 l 1074 590 q 1010 786 1074 719 q 822 853 946 853 l 494 853 q 307 786 371 853 q 243 590 243 719 l 243 382 m 525 1104 l 613 1250 l 747 1250 l 661 1104 l 525 1104 z "},"Ô":{"ha":1274,"x_min":99,"x_max":1218,"o":"m 494 0 q 195 101 292 0 q 99 411 99 201 l 99 561 q 195 872 99 771 q 494 972 292 972 l 822 972 q 1122 872 1025 972 q 1218 561 1218 771 l 1218 411 q 1122 101 1218 201 q 822 0 1025 0 l 494 0 m 243 382 q 307 186 243 253 q 494 119 371 119 l 822 119 q 1010 186 946 119 q 1074 382 1074 253 l 1074 590 q 1010 786 1074 719 q 822 853 946 853 l 494 853 q 307 786 371 853 q 243 590 243 719 l 243 382 m 460 1104 l 546 1250 l 726 1250 l 813 1104 l 688 1104 l 658 1204 l 621 1204 l 586 1104 l 460 1104 z "},"Õ":{"ha":1274,"x_min":99,"x_max":1218,"o":"m 494 0 q 195 101 292 0 q 99 411 99 201 l 99 561 q 195 872 99 771 q 494 972 292 972 l 822 972 q 1122 872 1025 972 q 1218 561 1218 771 l 1218 411 q 1122 101 1218 201 q 822 0 1025 0 l 494 0 m 243 382 q 307 186 243 253 q 494 119 371 119 l 822 119 q 1010 186 946 119 q 1074 382 1074 253 l 1074 590 q 1010 786 1074 719 q 822 853 946 853 l 494 853 q 307 786 371 853 q 243 590 243 719 l 243 382 m 442 1201 q 485 1235 464 1221 q 535 1250 507 1250 q 558 1247 547 1250 q 581 1239 569 1243 q 605 1227 593 1233 q 629 1214 617 1221 q 682 1187 654 1199 q 742 1175 710 1175 q 790 1182 769 1175 q 833 1204 811 1189 l 833 1153 q 794 1115 814 1129 q 746 1100 774 1100 q 696 1112 721 1100 q 650 1136 671 1124 q 597 1163 625 1151 q 538 1175 569 1175 q 487 1167 511 1175 q 442 1143 463 1158 l 442 1201 z "},"Ö":{"ha":1274,"x_min":99,"x_max":1218,"o":"m 494 0 q 195 101 292 0 q 99 411 99 201 l 99 561 q 195 872 99 771 q 494 972 292 972 l 822 972 q 1122 872 1025 972 q 1218 561 1218 771 l 1218 411 q 1122 101 1218 201 q 822 0 1025 0 l 494 0 m 243 382 q 307 186 243 253 q 494 119 371 119 l 822 119 q 1010 186 946 119 q 1074 382 1074 253 l 1074 590 q 1010 786 1074 719 q 822 853 946 853 l 494 853 q 307 786 371 853 q 243 590 243 719 l 243 382 m 410 1132 l 410 1250 l 539 1250 l 539 1132 l 410 1132 m 733 1132 l 733 1250 l 864 1250 l 864 1132 l 733 1132 z "},"×":{"ha":789,"x_min":133,"x_max":678,"o":"m 215 204 l 133 289 l 324 486 l 133 683 l 215 768 l 406 571 l 596 768 l 678 683 l 488 486 l 678 289 l 596 204 l 406 401 l 215 204 z "},"Ø":{"ha":1274,"x_min":99,"x_max":1218,"o":"m 335 -47 l 364 11 q 236 72 288 36 q 154 155 185 107 q 111 266 124 203 q 99 411 99 329 l 99 561 q 195 872 99 771 q 494 972 292 972 l 831 972 l 854 1019 l 983 1019 l 954 961 q 1083 901 1032 936 q 1163 817 1133 865 q 1206 706 1193 769 q 1218 561 1218 643 l 1218 411 q 1122 101 1218 201 q 822 0 1025 0 l 488 0 l 464 -47 l 335 -47 m 418 126 l 772 853 l 494 853 q 307 786 371 853 q 243 590 243 719 l 243 382 q 253 294 243 336 q 283 217 263 251 q 338 160 304 183 q 418 126 371 136 m 547 119 l 822 119 q 1010 186 946 119 q 1074 382 1074 253 l 1074 590 q 1064 678 1074 636 q 1033 755 1054 721 q 979 813 1013 789 q 899 846 946 836 l 547 119 z "},"Ù":{"ha":1182,"x_min":119,"x_max":1101,"o":"m 957 140 l 957 971 l 1101 971 l 1101 0 l 544 0 q 356 20 436 0 q 224 88 276 40 q 145 215 171 136 q 119 411 119 294 l 119 972 l 264 972 l 264 411 q 326 213 264 286 q 517 140 388 140 l 957 140 m 567 1104 l 479 1250 l 615 1250 l 701 1104 l 567 1104 z "},"Ú":{"ha":1182,"x_min":119,"x_max":1101,"o":"m 957 140 l 957 971 l 1101 971 l 1101 0 l 544 0 q 356 20 436 0 q 224 88 276 40 q 145 215 171 136 q 119 411 119 294 l 119 972 l 264 972 l 264 411 q 326 213 264 286 q 517 140 388 140 l 957 140 m 479 1104 l 567 1250 l 701 1250 l 615 1104 l 479 1104 z "},"Û":{"ha":1182,"x_min":119,"x_max":1101,"o":"m 957 140 l 957 971 l 1101 971 l 1101 0 l 544 0 q 356 20 436 0 q 224 88 276 40 q 145 215 171 136 q 119 411 119 294 l 119 972 l 264 972 l 264 411 q 326 213 264 286 q 517 140 388 140 l 957 140 m 414 1104 l 500 1250 l 681 1250 l 767 1104 l 642 1104 l 613 1204 l 575 1204 l 540 1104 l 414 1104 z "},"Ü":{"ha":1182,"x_min":119,"x_max":1101,"o":"m 957 140 l 957 971 l 1101 971 l 1101 0 l 544 0 q 356 20 436 0 q 224 88 276 40 q 145 215 171 136 q 119 411 119 294 l 119 972 l 264 972 l 264 411 q 326 213 264 286 q 517 140 388 140 l 957 140 m 364 1132 l 364 1250 l 493 1250 l 493 1132 l 364 1132 m 688 1132 l 688 1250 l 818 1250 l 818 1132 l 688 1132 z "},"Ý":{"ha":1194,"x_min":119,"x_max":1114,"o":"m 544 0 l 544 371 l 518 371 q 217 471 315 371 q 119 782 119 571 l 119 972 l 264 972 q 262 859 264 917 q 263 748 260 801 q 278 647 267 694 q 319 565 290 600 q 394 510 347 531 q 515 490 442 490 l 717 490 q 838 510 790 490 q 914 565 886 531 q 954 647 942 600 q 970 748 967 694 q 972 859 974 801 q 969 972 969 917 l 1114 972 l 1114 782 q 1087 588 1114 667 q 1006 462 1060 510 q 873 393 953 414 q 689 371 793 372 l 689 0 l 544 0 m 486 1104 l 574 1250 l 708 1250 l 622 1104 l 486 1104 z "},"Þ":{"ha":1214,"x_min":119,"x_max":1133,"o":"m 119 0 l 119 972 l 264 972 l 264 761 l 840 761 q 953 742 900 761 q 1047 688 1007 724 q 1110 601 1086 653 q 1133 485 1133 550 q 1110 369 1133 419 q 1046 283 1086 318 q 953 229 1006 247 q 840 211 900 211 l 264 211 l 264 0 l 119 0 m 264 331 l 840 331 q 947 374 906 331 q 988 485 988 418 q 947 597 988 551 q 840 642 907 642 l 264 642 l 264 331 z "},"ß":{"ha":1172,"x_min":119,"x_max":1090,"o":"m 119 0 l 119 710 q 181 908 119 844 q 371 972 242 972 l 739 972 q 851 955 797 972 q 945 903 904 938 q 1010 817 986 868 q 1033 701 1033 767 q 1028 645 1033 669 q 1015 600 1024 621 q 992 558 1006 579 q 961 513 978 538 q 1020 457 996 485 q 1060 397 1044 429 q 1083 328 1076 365 q 1090 244 1090 290 q 1076 143 1090 193 q 1035 54 1063 93 q 965 -8 1007 15 q 868 -32 924 -32 q 806 -25 838 -32 l 433 67 l 433 185 q 517 163 461 178 q 633 132 572 147 q 747 105 693 117 q 821 93 800 93 q 876 108 853 93 q 915 145 900 122 q 938 198 931 168 q 946 257 946 228 q 936 324 946 293 q 908 379 926 356 q 861 417 889 403 q 797 431 833 431 l 589 431 l 589 550 q 684 549 632 550 q 782 558 736 547 q 858 602 828 569 q 889 701 889 635 q 846 810 889 768 q 739 853 803 853 l 443 853 q 310 805 356 853 q 264 665 264 757 l 264 0 l 119 0 z "},"à":{"ha":1110,"x_min":99,"x_max":1026,"o":"m 739 0 l 450 0 q 313 23 378 0 q 201 88 249 46 q 126 193 154 131 q 99 335 99 256 q 126 477 99 414 q 201 583 153 540 q 313 649 249 626 q 450 672 376 672 l 1026 672 l 1026 0 l 882 0 l 882 553 l 450 553 q 365 537 403 553 q 301 492 328 521 q 260 422 275 463 q 246 333 246 382 q 260 247 246 286 q 302 180 275 208 q 367 135 329 151 q 450 119 404 119 l 739 119 l 739 0 m 531 826 l 443 972 l 579 972 l 665 826 l 531 826 z "},"á":{"ha":1110,"x_min":99,"x_max":1026,"o":"m 739 0 l 450 0 q 313 23 378 0 q 201 88 249 46 q 126 193 154 131 q 99 335 99 256 q 126 477 99 414 q 201 583 153 540 q 313 649 249 626 q 450 672 376 672 l 1026 672 l 1026 0 l 882 0 l 882 553 l 450 553 q 365 537 403 553 q 301 492 328 521 q 260 422 275 463 q 246 333 246 382 q 260 247 246 286 q 302 180 275 208 q 367 135 329 151 q 450 119 404 119 l 739 119 l 739 0 m 443 826 l 531 972 l 665 972 l 579 826 l 443 826 z "},"â":{"ha":1110,"x_min":99,"x_max":1026,"o":"m 739 0 l 450 0 q 313 23 378 0 q 201 88 249 46 q 126 193 154 131 q 99 335 99 256 q 126 477 99 414 q 201 583 153 540 q 313 649 249 626 q 450 672 376 672 l 1026 672 l 1026 0 l 882 0 l 882 553 l 450 553 q 365 537 403 553 q 301 492 328 521 q 260 422 275 463 q 246 333 246 382 q 260 247 246 286 q 302 180 275 208 q 367 135 329 151 q 450 119 404 119 l 739 119 l 739 0 m 378 826 l 464 972 l 644 972 l 731 826 l 606 826 l 576 926 l 539 926 l 504 826 l 378 826 z "},"ã":{"ha":1110,"x_min":99,"x_max":1026,"o":"m 739 0 l 450 0 q 313 23 378 0 q 201 88 249 46 q 126 193 154 131 q 99 335 99 256 q 126 477 99 414 q 201 583 153 540 q 313 649 249 626 q 450 672 376 672 l 1026 672 l 1026 0 l 882 0 l 882 553 l 450 553 q 365 537 403 553 q 301 492 328 521 q 260 422 275 463 q 246 333 246 382 q 260 247 246 286 q 302 180 275 208 q 367 135 329 151 q 450 119 404 119 l 739 119 l 739 0 m 360 924 q 403 958 382 943 q 453 972 425 972 q 476 969 465 972 q 499 961 488 965 q 523 949 511 956 q 547 936 535 943 q 600 909 572 921 q 660 897 628 897 q 708 904 688 897 q 751 926 729 911 l 751 875 q 712 837 732 851 q 664 822 692 822 q 614 834 639 822 q 568 858 589 846 q 515 885 543 874 q 456 897 488 897 q 405 889 429 897 q 360 865 381 881 l 360 924 z "},"ä":{"ha":1110,"x_min":99,"x_max":1026,"o":"m 739 0 l 450 0 q 313 23 378 0 q 201 88 249 46 q 126 193 154 131 q 99 335 99 256 q 126 477 99 414 q 201 583 153 540 q 313 649 249 626 q 450 672 376 672 l 1026 672 l 1026 0 l 882 0 l 882 553 l 450 553 q 365 537 403 553 q 301 492 328 521 q 260 422 275 463 q 246 333 246 382 q 260 247 246 286 q 302 180 275 208 q 367 135 329 151 q 450 119 404 119 l 739 119 l 739 0 m 328 854 l 328 972 l 457 972 l 457 854 l 328 854 m 651 854 l 651 972 l 782 972 l 782 854 l 651 854 z "},"å":{"ha":1110,"x_min":99,"x_max":1026,"o":"m 739 0 l 450 0 q 313 23 378 0 q 201 88 249 46 q 126 193 154 131 q 99 335 99 256 q 126 477 99 414 q 201 583 153 540 q 313 649 249 626 q 450 672 376 672 l 1026 672 l 1026 0 l 882 0 l 882 553 l 450 553 q 365 537 403 553 q 301 492 328 521 q 260 422 275 463 q 246 333 246 382 q 260 247 246 286 q 302 180 275 208 q 367 135 329 151 q 450 119 404 119 l 739 119 l 739 0 m 396 813 l 396 864 q 410 925 396 903 q 448 958 425 947 q 499 970 471 968 q 557 972 528 972 q 615 969 586 972 q 665 956 643 967 q 701 924 688 946 q 715 864 715 901 l 715 813 q 701 751 715 774 q 663 719 686 729 q 610 706 639 708 q 551 704 581 704 q 494 707 522 704 q 444 721 465 710 q 409 753 422 732 q 396 813 396 775 m 442 817 q 472 759 442 772 q 542 746 503 746 l 571 746 q 640 759 610 746 q 671 817 671 772 l 671 858 q 640 915 671 903 q 571 926 610 926 l 542 926 q 472 915 503 926 q 442 858 442 903 l 442 817 z "},"æ":{"ha":1903,"x_min":99,"x_max":1799,"o":"m 738 0 l 450 0 q 313 22 378 0 q 201 88 249 44 q 126 193 154 131 q 99 335 99 256 q 126 477 99 414 q 201 583 153 540 q 313 649 249 626 q 450 672 376 672 l 1026 672 l 1026 615 q 1235 672 1115 672 l 1792 672 l 1792 297 l 1026 297 q 1051 208 1036 243 q 1090 153 1065 174 q 1149 126 1114 133 q 1235 119 1185 119 l 1799 119 l 1799 0 l 1235 0 q 1097 23 1161 0 q 985 89 1033 46 q 910 195 938 132 q 883 338 883 258 l 882 338 l 882 553 l 450 553 q 365 536 403 553 q 301 490 328 519 q 259 421 274 461 q 244 333 244 381 q 301 178 244 238 q 450 119 358 119 l 738 119 l 738 0 m 1029 378 l 1647 378 l 1647 553 l 1235 553 q 1101 507 1154 553 q 1029 378 1047 461 z "},"ç":{"ha":1097,"x_min":99,"x_max":1014,"o":"m 421 -303 l 421 -258 l 622 -258 q 661 -241 644 -258 q 678 -200 678 -224 q 661 -159 678 -176 q 622 -142 644 -142 l 436 -142 q 454 -77 444 -110 q 475 -11 464 -44 l 478 -1 l 429 0 q 297 28 358 4 q 192 97 236 53 q 124 201 149 140 q 99 338 99 261 q 126 479 99 417 q 201 585 153 542 q 313 650 249 628 q 450 672 376 672 l 1007 672 l 1007 553 l 450 553 q 367 538 404 553 q 302 494 329 522 q 260 426 275 465 q 246 340 246 388 q 260 252 246 293 q 301 182 275 211 q 365 136 328 153 q 450 119 403 119 l 1014 119 l 1014 0 l 525 0 l 493 -97 l 614 -97 q 692 -120 667 -97 q 717 -200 717 -143 q 692 -280 717 -257 q 614 -303 667 -303 l 421 -303 z "},"è":{"ha":1097,"x_min":99,"x_max":1014,"o":"m 240 297 q 264 209 249 243 q 303 155 279 175 q 363 127 328 135 q 450 119 399 119 l 1014 119 l 1014 0 l 450 0 q 313 23 376 0 q 201 89 249 46 q 126 195 153 132 q 99 338 99 258 q 126 479 99 417 q 201 585 154 542 q 313 650 249 628 q 450 672 378 672 l 1006 672 l 1006 297 l 240 297 m 243 378 l 863 378 l 863 553 l 450 553 q 315 506 368 553 q 243 378 261 460 m 525 826 l 438 972 l 574 972 l 660 826 l 525 826 z "},"é":{"ha":1097,"x_min":99,"x_max":1014,"o":"m 240 297 q 264 209 249 243 q 303 155 279 175 q 363 127 328 135 q 450 119 399 119 l 1014 119 l 1014 0 l 450 0 q 313 23 376 0 q 201 89 249 46 q 126 195 153 132 q 99 338 99 258 q 126 479 99 417 q 201 585 154 542 q 313 650 249 628 q 450 672 378 672 l 1006 672 l 1006 297 l 240 297 m 243 378 l 863 378 l 863 553 l 450 553 q 315 506 368 553 q 243 378 261 460 m 438 826 l 525 972 l 660 972 l 574 826 l 438 826 z "},"ê":{"ha":1097,"x_min":99,"x_max":1014,"o":"m 240 297 q 264 209 249 243 q 303 155 279 175 q 363 127 328 135 q 450 119 399 119 l 1014 119 l 1014 0 l 450 0 q 313 23 376 0 q 201 89 249 46 q 126 195 153 132 q 99 338 99 258 q 126 479 99 417 q 201 585 154 542 q 313 650 249 628 q 450 672 378 672 l 1006 672 l 1006 297 l 240 297 m 243 378 l 863 378 l 863 553 l 450 553 q 315 506 368 553 q 243 378 261 460 m 372 826 l 458 972 l 639 972 l 725 826 l 600 826 l 571 926 l 533 926 l 499 826 l 372 826 z "},"ë":{"ha":1097,"x_min":99,"x_max":1014,"o":"m 240 297 q 264 209 249 243 q 303 155 279 175 q 363 127 328 135 q 450 119 399 119 l 1014 119 l 1014 0 l 450 0 q 313 23 376 0 q 201 89 249 46 q 126 195 153 132 q 99 338 99 258 q 126 479 99 417 q 201 585 154 542 q 313 650 249 628 q 450 672 378 672 l 1006 672 l 1006 297 l 240 297 m 243 378 l 863 378 l 863 553 l 450 553 q 315 506 368 553 q 243 378 261 460 m 322 854 l 322 972 l 451 972 l 451 854 l 322 854 m 646 854 l 646 972 l 776 972 l 776 854 l 646 854 z "},"ì":{"ha":375,"x_min":76,"x_max":299,"o":"m 119 0 l 119 672 l 264 672 l 264 0 l 119 0 m 164 826 l 76 972 l 213 972 l 299 826 l 164 826 z "},"í":{"ha":375,"x_min":76,"x_max":299,"o":"m 119 0 l 119 672 l 264 672 l 264 0 l 119 0 m 76 826 l 164 972 l 299 972 l 213 826 l 76 826 z "},"î":{"ha":375,"x_min":11,"x_max":364,"o":"m 119 0 l 119 672 l 264 672 l 264 0 l 119 0 m 11 826 l 97 972 l 278 972 l 364 826 l 239 826 l 210 926 l 172 926 l 138 826 l 11 826 z "},"ï":{"ha":375,"x_min":-39,"x_max":415,"o":"m 119 0 l 119 672 l 264 672 l 264 0 l 119 0 m -39 854 l -39 972 l 90 972 l 90 854 l -39 854 m 285 854 l 285 972 l 415 972 l 415 854 l 285 854 z "},"ð":{"ha":1063,"x_min":119,"x_max":976,"o":"m 476 711 l 456 750 l 626 853 l 285 853 l 285 972 l 653 972 q 684 969 672 972 q 705 960 696 967 q 722 944 714 954 q 740 918 729 933 l 858 990 l 879 951 l 751 876 l 957 324 q 971 278 965 300 q 976 232 976 256 q 941 122 976 167 q 853 51 906 78 q 741 12 801 24 q 631 0 681 0 l 413 0 q 282 24 338 0 q 190 91 226 47 q 137 196 154 135 q 119 332 119 257 q 141 477 119 419 q 204 569 163 535 q 306 616 246 603 q 444 629 367 629 l 697 629 l 617 797 l 476 711 m 732 510 l 468 510 q 322 460 376 510 q 267 311 267 411 q 309 172 267 224 q 439 119 351 119 l 631 119 q 695 128 663 119 q 754 154 728 136 q 798 199 781 172 q 815 264 815 226 q 806 322 815 289 q 783 388 796 354 q 755 454 769 422 q 732 510 740 486 z "},"ñ":{"ha":1185,"x_min":119,"x_max":1104,"o":"m 119 0 l 119 672 l 264 672 l 264 494 q 331 563 297 531 q 401 620 364 596 q 481 658 439 644 q 575 672 524 672 l 793 672 q 933 657 875 672 q 1030 606 992 642 q 1086 512 1068 571 q 1104 367 1104 453 l 1104 0 l 960 0 l 960 367 q 916 508 960 463 q 779 553 872 553 l 576 553 q 502 538 533 553 q 440 493 471 522 l 264 321 l 264 0 l 119 0 m 397 924 q 441 958 419 943 q 490 972 463 972 q 514 969 503 972 q 536 961 525 965 q 560 949 549 956 q 585 936 572 943 q 638 909 610 921 q 697 897 665 897 q 746 904 725 897 q 789 926 767 911 l 789 875 q 749 837 769 851 q 701 822 729 822 q 651 834 676 822 q 606 858 626 846 q 553 885 581 874 q 493 897 525 897 q 442 889 467 897 q 397 865 418 881 l 397 924 z "},"ò":{"ha":1238,"x_min":99,"x_max":1181,"o":"m 99 338 q 126 479 99 417 q 201 585 154 542 q 313 650 249 628 q 450 672 378 672 l 829 672 q 967 650 903 672 q 1078 585 1031 628 q 1153 479 1125 542 q 1181 338 1181 417 q 1153 196 1181 258 q 1078 90 1126 133 q 967 23 1031 46 q 829 0 903 0 l 450 0 q 313 23 376 0 q 201 90 249 46 q 126 196 153 133 q 99 338 99 258 m 450 119 l 829 119 q 914 136 876 119 q 978 182 951 153 q 1019 252 1004 211 q 1033 340 1033 293 q 1019 426 1033 388 q 977 494 1004 465 q 913 538 950 522 q 829 553 875 553 l 450 553 q 367 538 404 553 q 302 494 329 522 q 260 426 275 465 q 246 340 246 388 q 260 252 246 293 q 301 182 275 211 q 365 136 328 153 q 450 119 403 119 m 594 826 l 507 972 l 643 972 l 729 826 l 594 826 z "},"ó":{"ha":1238,"x_min":99,"x_max":1181,"o":"m 99 338 q 126 479 99 417 q 201 585 154 542 q 313 650 249 628 q 450 672 378 672 l 829 672 q 967 650 903 672 q 1078 585 1031 628 q 1153 479 1125 542 q 1181 338 1181 417 q 1153 196 1181 258 q 1078 90 1126 133 q 967 23 1031 46 q 829 0 903 0 l 450 0 q 313 23 376 0 q 201 90 249 46 q 126 196 153 133 q 99 338 99 258 m 450 119 l 829 119 q 914 136 876 119 q 978 182 951 153 q 1019 252 1004 211 q 1033 340 1033 293 q 1019 426 1033 388 q 977 494 1004 465 q 913 538 950 522 q 829 553 875 553 l 450 553 q 367 538 404 553 q 302 494 329 522 q 260 426 275 465 q 246 340 246 388 q 260 252 246 293 q 301 182 275 211 q 365 136 328 153 q 450 119 403 119 m 507 826 l 594 972 l 729 972 l 643 826 l 507 826 z "},"ô":{"ha":1238,"x_min":99,"x_max":1181,"o":"m 99 338 q 126 479 99 417 q 201 585 154 542 q 313 650 249 628 q 450 672 378 672 l 829 672 q 967 650 903 672 q 1078 585 1031 628 q 1153 479 1125 542 q 1181 338 1181 417 q 1153 196 1181 258 q 1078 90 1126 133 q 967 23 1031 46 q 829 0 903 0 l 450 0 q 313 23 376 0 q 201 90 249 46 q 126 196 153 133 q 99 338 99 258 m 450 119 l 829 119 q 914 136 876 119 q 978 182 951 153 q 1019 252 1004 211 q 1033 340 1033 293 q 1019 426 1033 388 q 977 494 1004 465 q 913 538 950 522 q 829 553 875 553 l 450 553 q 367 538 404 553 q 302 494 329 522 q 260 426 275 465 q 246 340 246 388 q 260 252 246 293 q 301 182 275 211 q 365 136 328 153 q 450 119 403 119 m 442 826 l 528 972 l 708 972 l 794 826 l 669 826 l 640 926 l 603 926 l 568 826 l 442 826 z "},"õ":{"ha":1238,"x_min":99,"x_max":1181,"o":"m 99 338 q 126 479 99 417 q 201 585 154 542 q 313 650 249 628 q 450 672 378 672 l 829 672 q 967 650 903 672 q 1078 585 1031 628 q 1153 479 1125 542 q 1181 338 1181 417 q 1153 196 1181 258 q 1078 90 1126 133 q 967 23 1031 46 q 829 0 903 0 l 450 0 q 313 23 376 0 q 201 90 249 46 q 126 196 153 133 q 99 338 99 258 m 450 119 l 829 119 q 914 136 876 119 q 978 182 951 153 q 1019 252 1004 211 q 1033 340 1033 293 q 1019 426 1033 388 q 977 494 1004 465 q 913 538 950 522 q 829 553 875 553 l 450 553 q 367 538 404 553 q 302 494 329 522 q 260 426 275 465 q 246 340 246 388 q 260 252 246 293 q 301 182 275 211 q 365 136 328 153 q 450 119 403 119 m 424 924 q 467 958 446 943 q 517 972 489 972 q 540 969 529 972 q 563 961 551 965 q 587 949 575 956 q 611 936 599 943 q 664 909 636 921 q 724 897 692 897 q 772 904 751 897 q 815 926 793 911 l 815 875 q 776 837 796 851 q 728 822 756 822 q 678 834 703 822 q 632 858 653 846 q 579 885 607 874 q 519 897 551 897 q 469 889 493 897 q 424 865 444 881 l 424 924 z "},"ö":{"ha":1238,"x_min":99,"x_max":1181,"o":"m 99 338 q 126 479 99 417 q 201 585 154 542 q 313 650 249 628 q 450 672 378 672 l 829 672 q 967 650 903 672 q 1078 585 1031 628 q 1153 479 1125 542 q 1181 338 1181 417 q 1153 196 1181 258 q 1078 90 1126 133 q 967 23 1031 46 q 829 0 903 0 l 450 0 q 313 23 376 0 q 201 90 249 46 q 126 196 153 133 q 99 338 99 258 m 450 119 l 829 119 q 914 136 876 119 q 978 182 951 153 q 1019 252 1004 211 q 1033 340 1033 293 q 1019 426 1033 388 q 977 494 1004 465 q 913 538 950 522 q 829 553 875 553 l 450 553 q 367 538 404 553 q 302 494 329 522 q 260 426 275 465 q 246 340 246 388 q 260 252 246 293 q 301 182 275 211 q 365 136 328 153 q 450 119 403 119 m 392 854 l 392 972 l 521 972 l 521 854 l 392 854 m 715 854 l 715 972 l 846 972 l 846 854 l 715 854 z "},"÷":{"ha":867,"x_min":119,"x_max":774,"o":"m 382 704 l 382 822 l 511 822 l 511 704 l 382 704 m 119 426 l 119 546 l 774 546 l 774 426 l 119 426 m 382 150 l 382 268 l 511 268 l 511 150 l 382 150 z "},"ø":{"ha":1238,"x_min":99,"x_max":1181,"o":"m 375 -58 l 404 -1 l 358 11 q 315 23 336 17 q 274 39 294 29 q 144 161 189 81 q 99 338 99 242 q 125 477 99 415 q 199 583 151 539 q 310 649 246 626 q 450 672 375 672 l 744 672 l 772 731 l 904 731 l 875 675 l 921 663 q 1111 551 1042 635 q 1181 338 1181 468 q 1154 199 1181 261 q 1081 92 1128 136 q 969 24 1033 47 q 829 0 904 0 l 535 0 l 506 -58 l 375 -58 m 464 119 l 683 553 l 450 553 q 367 538 404 553 q 302 494 329 522 q 260 426 275 465 q 246 340 246 388 q 261 249 246 290 q 304 178 276 208 q 372 133 332 149 q 460 119 411 118 l 464 119 m 596 119 l 829 119 q 979 181 925 119 q 1033 340 1033 243 q 1017 429 1033 389 q 974 498 1001 469 q 906 541 946 526 q 819 553 867 556 l 815 553 l 596 119 z "},"ù":{"ha":1185,"x_min":119,"x_max":1104,"o":"m 119 672 l 264 672 l 264 307 q 307 165 264 210 q 443 119 350 119 l 647 119 q 720 135 689 119 q 782 179 751 150 l 960 353 l 960 672 l 1104 672 l 1104 0 l 960 0 l 960 178 q 888 110 918 142 q 826 53 858 78 q 752 15 793 29 q 649 0 711 0 l 429 0 q 290 16 349 0 q 194 68 232 32 q 138 163 156 104 q 119 307 119 221 l 119 672 m 568 826 l 481 972 l 617 972 l 703 826 l 568 826 z "},"ú":{"ha":1185,"x_min":119,"x_max":1104,"o":"m 119 672 l 264 672 l 264 307 q 307 165 264 210 q 443 119 350 119 l 647 119 q 720 135 689 119 q 782 179 751 150 l 960 353 l 960 672 l 1104 672 l 1104 0 l 960 0 l 960 178 q 888 110 918 142 q 826 53 858 78 q 752 15 793 29 q 649 0 711 0 l 429 0 q 290 16 349 0 q 194 68 232 32 q 138 163 156 104 q 119 307 119 221 l 119 672 m 481 826 l 568 972 l 703 972 l 617 826 l 481 826 z "},"û":{"ha":1185,"x_min":119,"x_max":1104,"o":"m 119 672 l 264 672 l 264 307 q 307 165 264 210 q 443 119 350 119 l 647 119 q 720 135 689 119 q 782 179 751 150 l 960 353 l 960 672 l 1104 672 l 1104 0 l 960 0 l 960 178 q 888 110 918 142 q 826 53 858 78 q 752 15 793 29 q 649 0 711 0 l 429 0 q 290 16 349 0 q 194 68 232 32 q 138 163 156 104 q 119 307 119 221 l 119 672 m 415 826 l 501 972 l 682 972 l 768 826 l 643 826 l 614 926 l 576 926 l 542 826 l 415 826 z "},"ü":{"ha":1185,"x_min":119,"x_max":1104,"o":"m 119 672 l 264 672 l 264 307 q 307 165 264 210 q 443 119 350 119 l 647 119 q 720 135 689 119 q 782 179 751 150 l 960 353 l 960 672 l 1104 672 l 1104 0 l 960 0 l 960 178 q 888 110 918 142 q 826 53 858 78 q 752 15 793 29 q 649 0 711 0 l 429 0 q 290 16 349 0 q 194 68 232 32 q 138 163 156 104 q 119 307 119 221 l 119 672 m 365 854 l 365 972 l 494 972 l 494 854 l 365 854 m 689 854 l 689 972 l 819 972 l 819 854 l 689 854 z "},"ý":{"ha":1185,"x_min":119,"x_max":1104,"o":"m 286 -318 l 286 -199 l 707 -199 q 896 -132 832 -199 q 960 63 960 -65 l 960 178 q 919 139 938 160 q 881 99 900 118 q 774 24 826 49 q 649 0 722 0 l 429 0 q 290 16 349 0 q 194 68 232 32 q 138 163 156 104 q 119 307 119 221 l 119 672 l 264 672 l 264 307 q 307 165 264 210 q 443 119 350 119 l 647 119 q 720 135 688 119 q 782 179 753 150 l 960 353 l 960 672 l 1104 672 l 1104 93 q 1007 -217 1104 -117 q 707 -318 910 -318 l 286 -318 m 481 826 l 568 972 l 703 972 l 617 826 l 481 826 z "},"þ":{"ha":1110,"x_min":119,"x_max":1047,"o":"m 119 -315 l 119 972 l 264 972 l 264 119 l 696 119 q 846 181 792 119 q 900 340 900 243 q 885 426 900 388 q 844 494 871 465 q 779 538 817 522 q 696 553 742 553 l 407 553 l 407 672 l 696 672 q 833 650 769 672 q 945 585 897 628 q 1020 479 993 542 q 1047 338 1047 417 q 1025 213 1047 272 q 961 106 1003 154 q 840 24 910 47 q 696 0 771 0 l 264 0 l 264 -315 l 119 -315 z "},"ÿ":{"ha":1185,"x_min":119,"x_max":1104,"o":"m 286 -318 l 286 -199 l 707 -199 q 896 -132 832 -199 q 960 63 960 -65 l 960 178 q 919 139 938 160 q 881 99 900 118 q 774 24 826 49 q 649 0 722 0 l 429 0 q 290 16 349 0 q 194 68 232 32 q 138 163 156 104 q 119 307 119 221 l 119 672 l 264 672 l 264 307 q 307 165 264 210 q 443 119 350 119 l 647 119 q 720 135 688 119 q 782 179 753 150 l 960 353 l 960 672 l 1104 672 l 1104 93 q 1007 -217 1104 -117 q 707 -318 910 -318 l 286 -318 m 365 854 l 365 972 l 494 972 l 494 854 l 365 854 m 689 854 l 689 972 l 819 972 l 819 854 l 689 854 z "},"Đ":{"ha":1133,"x_min":50,"x_max":1075,"o":"m 122 0 l 122 428 l 50 428 l 50 547 l 122 547 l 122 972 l 678 972 q 978 872 881 972 q 1075 561 1075 771 l 1075 411 q 978 101 1075 201 q 678 0 881 0 l 122 0 m 265 119 l 678 119 q 867 186 803 119 q 931 382 931 253 l 931 590 q 867 786 931 719 q 678 853 803 853 l 265 853 l 265 547 l 442 547 l 442 428 l 265 428 l 265 119 z "},"đ":{"ha":1110,"x_min":99,"x_max":1068,"o":"m 882 119 l 882 822 l 644 822 l 644 882 l 882 882 l 882 972 l 1026 972 l 1026 882 l 1068 882 l 1068 822 l 1026 822 l 1026 0 l 450 0 q 312 24 376 0 q 200 91 247 47 q 126 197 153 135 q 99 338 99 260 q 126 479 99 417 q 201 585 153 542 q 313 650 249 628 q 450 672 376 672 l 739 672 l 739 553 l 450 553 q 367 538 404 553 q 302 494 329 522 q 260 426 275 465 q 246 340 246 388 q 260 252 246 293 q 301 182 275 211 q 365 136 328 153 q 450 119 403 119 l 882 119 z "},"ı":{"ha":375,"x_min":119,"x_max":264,"o":"m 119 0 l 119 672 l 264 672 l 264 0 l 119 0 z "},"Ł":{"ha":1139,"x_min":22,"x_max":1060,"o":"m 122 0 l 122 383 l 22 347 l 22 463 l 122 499 l 122 972 l 267 972 l 267 551 l 494 635 l 494 519 l 267 436 l 267 119 l 1060 119 l 1060 0 l 122 0 z "},"ł":{"ha":375,"x_min":36,"x_max":353,"o":"m 122 0 l 122 375 l 36 349 l 36 464 l 122 490 l 122 972 l 267 972 l 267 539 l 353 565 l 353 450 l 267 424 l 267 0 l 122 0 z "},"Œ":{"ha":2106,"x_min":99,"x_max":2011,"o":"m 494 0 q 195 101 292 0 q 99 411 99 201 l 99 560 q 195 871 99 771 q 494 971 292 971 l 822 971 q 1146 839 1051 971 q 1471 971 1240 971 l 2011 971 l 2011 851 l 1471 851 q 1347 830 1396 851 q 1270 769 1299 808 q 1230 675 1242 731 q 1218 550 1218 619 l 1921 550 l 1921 431 l 1218 431 l 1218 381 q 1282 186 1218 253 q 1471 119 1346 119 l 2011 119 l 2011 0 l 1471 0 q 1146 132 1240 0 q 822 0 1051 0 l 494 0 m 242 381 q 306 186 242 253 q 494 119 371 119 l 822 119 q 1010 186 946 119 q 1074 381 1074 253 l 1074 590 q 1010 785 1074 719 q 822 851 946 851 l 494 851 q 306 785 371 851 q 242 590 242 719 l 242 381 z "},"œ":{"ha":2054,"x_min":99,"x_max":1949,"o":"m 99 338 q 126 479 99 417 q 201 585 154 542 q 313 650 249 628 q 450 672 378 672 l 829 672 q 986 642 914 672 q 1107 554 1058 613 q 1228 642 1156 613 q 1385 672 1300 672 l 1942 672 l 1942 297 l 1179 297 q 1178 289 1178 294 q 1201 205 1186 238 q 1241 153 1217 172 q 1300 127 1265 135 q 1385 119 1335 119 l 1949 119 l 1949 0 l 1385 0 q 1227 31 1299 0 q 1107 119 1156 61 q 987 31 1058 61 q 829 0 915 0 l 450 0 q 313 23 376 0 q 201 89 249 46 q 126 195 153 132 q 99 338 99 258 m 450 119 l 829 119 q 914 136 876 119 q 978 182 951 153 q 1019 251 1004 211 q 1033 339 1033 292 q 977 494 1033 435 q 829 553 921 553 l 450 553 q 301 494 358 553 q 244 339 244 435 q 259 251 244 292 q 301 182 274 211 q 365 136 328 153 q 450 119 403 119 m 1179 378 l 1797 378 l 1797 553 l 1385 553 q 1251 506 1304 553 q 1179 378 1197 460 z "},"Š":{"ha":1153,"x_min":99,"x_max":1094,"o":"m 132 0 l 132 119 l 799 119 q 905 163 864 119 q 946 272 946 206 q 931 342 946 313 q 893 390 917 371 q 838 417 869 408 q 769 426 806 426 l 392 426 q 278 441 332 426 q 185 487 225 456 q 122 567 144 518 q 99 685 99 615 q 121 805 99 751 q 183 896 143 858 q 276 953 222 933 q 392 972 329 972 l 1064 972 l 1064 853 l 392 853 q 285 808 325 853 q 246 694 246 763 q 271 613 246 643 q 338 567 296 582 q 438 549 381 553 q 558 544 494 544 q 681 544 618 544 q 803 540 744 544 q 915 520 863 535 q 1006 477 967 506 q 1069 402 1046 449 q 1093 285 1092 356 q 1072 165 1094 218 q 1009 75 1049 111 q 915 19 969 39 q 799 0 861 0 l 132 0 m 400 1250 l 526 1250 l 561 1150 l 599 1150 l 628 1250 l 753 1250 l 667 1104 l 486 1104 l 400 1250 z "},"š":{"ha":1076,"x_min":99,"x_max":1014,"o":"m 99 0 l 99 119 l 743 119 q 785 124 764 119 q 825 141 807 129 q 855 171 843 153 q 867 214 867 189 q 855 255 867 239 q 824 280 843 271 q 783 292 806 289 q 740 296 761 296 l 407 296 q 306 301 360 296 q 206 327 251 307 q 129 385 160 347 q 99 489 99 424 q 129 592 99 556 q 206 647 160 629 q 306 668 251 664 q 407 672 360 672 l 1014 672 l 1014 553 l 369 553 q 326 548 349 553 q 286 531 304 543 q 256 501 268 519 q 244 458 244 483 q 256 417 244 433 q 287 393 268 401 q 328 382 306 385 q 371 379 350 379 l 706 379 q 807 373 753 379 q 907 347 861 367 q 983 288 953 326 q 1014 183 1014 249 q 983 80 1014 117 q 907 26 953 43 q 807 4 861 8 q 706 0 753 0 l 99 0 m 361 972 l 488 972 l 522 872 l 560 872 l 589 972 l 714 972 l 628 826 l 447 826 l 361 972 z "},"Ÿ":{"ha":1194,"x_min":119,"x_max":1114,"o":"m 544 0 l 544 371 l 518 371 q 217 471 315 371 q 119 782 119 571 l 119 972 l 264 972 q 262 859 264 917 q 263 748 260 801 q 278 647 267 694 q 319 565 290 600 q 394 510 347 531 q 515 490 442 490 l 717 490 q 838 510 790 490 q 914 565 886 531 q 954 647 942 600 q 970 748 967 694 q 972 859 974 801 q 969 972 969 917 l 1114 972 l 1114 782 q 1087 588 1114 667 q 1006 462 1060 510 q 873 393 953 414 q 689 371 793 372 l 689 0 l 544 0 m 371 1132 l 371 1250 l 500 1250 l 500 1132 l 371 1132 m 694 1132 l 694 1250 l 825 1250 l 825 1132 l 694 1132 z "},"Ž":{"ha":1163,"x_min":119,"x_max":1081,"o":"m 119 0 l 119 53 q 175 235 119 154 q 314 383 231 315 q 494 506 397 450 q 675 613 592 561 q 814 713 758 664 q 869 814 869 761 l 869 851 l 128 851 l 128 971 l 1072 971 q 1067 878 1072 921 q 1042 788 1063 835 q 939 640 1004 703 q 797 528 874 578 q 642 436 721 479 q 497 347 563 393 q 389 247 432 301 q 342 119 346 192 l 1081 119 l 1081 0 l 119 0 m 404 1250 l 531 1250 l 565 1150 l 603 1150 l 632 1250 l 757 1250 l 671 1104 l 490 1104 l 404 1250 z "},"ž":{"ha":1163,"x_min":119,"x_max":1081,"o":"m 119 0 l 119 53 q 151 186 119 133 q 235 272 183 239 q 355 324 288 306 q 494 356 422 343 q 635 382 565 369 q 761 415 704 394 q 857 467 818 435 q 906 553 896 499 l 128 553 l 128 672 l 1072 672 l 1072 660 q 1039 498 1072 564 q 951 388 1006 432 q 825 316 896 343 q 681 272 754 289 q 536 242 607 254 q 410 215 465 231 q 319 178 354 200 q 283 119 285 157 l 1081 119 l 1081 0 l 119 0 m 404 972 l 531 972 l 565 872 l 603 872 l 632 972 l 757 972 l 671 826 l 490 826 l 404 972 z "},"ƒ":{"ha":1258,"x_min":119,"x_max":1181,"o":"m 119 -240 l 119 -121 l 268 -121 q 456 -54 392 -121 q 519 140 519 13 l 519 561 q 617 872 519 771 q 917 972 714 972 l 1181 972 l 1181 853 l 917 853 q 783 826 842 853 q 690 725 725 799 l 669 683 l 665 672 l 1117 672 l 1117 553 l 664 553 l 664 171 q 567 -140 664 -39 q 268 -240 471 -240 l 119 -240 z "},"ˆ":{"ha":632,"x_min":129,"x_max":482,"o":"m 129 826 l 215 972 l 396 972 l 482 826 l 357 826 l 328 926 l 290 926 l 256 826 l 129 826 z "},"ˇ":{"ha":632,"x_min":133,"x_max":486,"o":"m 133 972 l 260 972 l 294 872 l 332 872 l 361 972 l 486 972 l 400 826 l 219 826 l 133 972 z "},"˘":{"ha":604,"x_min":129,"x_max":482,"o":"m 129 972 l 256 972 l 290 872 l 328 872 l 357 972 l 482 972 l 396 826 l 215 826 l 129 972 z "},"˙":{"ha":361,"x_min":119,"x_max":249,"o":"m 119 854 l 119 972 l 249 972 l 249 854 l 119 854 z "},"˚":{"ha":544,"x_min":119,"x_max":439,"o":"m 119 813 l 119 864 q 134 925 119 903 q 172 958 149 947 q 223 970 194 968 q 281 972 251 972 q 338 969 310 972 q 389 956 367 967 q 425 924 411 946 q 439 864 439 901 l 439 813 q 424 751 439 774 q 386 719 410 729 q 333 706 363 708 q 275 704 304 704 q 217 707 246 704 q 167 721 189 710 q 133 753 146 732 q 119 813 119 775 m 165 817 q 196 759 165 772 q 265 746 226 746 l 294 746 q 364 759 333 746 q 394 817 394 772 l 394 858 q 364 915 394 903 q 294 926 333 926 l 265 926 q 196 915 226 926 q 165 858 165 903 l 165 817 z "},"˛":{"ha":528,"x_min":122,"x_max":415,"o":"m 415 -304 l 222 -304 q 172 -293 192 -304 q 141 -263 151 -282 q 126 -218 131 -244 q 122 -162 122 -192 q 144 -62 122 -103 q 226 -21 165 -21 l 390 -21 l 407 -65 l 249 -65 q 190 -94 206 -65 q 174 -162 174 -122 q 188 -231 174 -203 q 243 -258 201 -258 l 415 -258 l 415 -304 z "},"˜":{"ha":614,"x_min":119,"x_max":511,"o":"m 119 924 q 163 958 142 943 q 213 972 185 972 q 236 969 225 972 q 258 961 247 965 q 283 949 271 956 q 307 936 294 943 q 360 909 332 921 q 419 897 388 897 q 468 904 447 897 q 511 926 489 911 l 511 875 q 472 837 492 851 q 424 822 451 822 q 374 834 399 822 q 328 858 349 846 q 275 885 303 874 q 215 897 247 897 q 165 889 189 897 q 119 865 140 881 l 119 924 z "},"˝":{"ha":786,"x_min":147,"x_max":661,"o":"m 147 826 l 235 972 l 369 972 l 283 826 l 147 826 m 439 826 l 525 972 l 661 972 l 575 826 l 439 826 z "},"μ":{"ha":1185,"x_min":119,"x_max":1104,"o":"m 119 -256 l 119 672 l 264 672 l 264 307 q 307 165 264 210 q 443 119 350 119 l 647 119 q 721 135 689 119 q 782 179 753 150 l 960 353 l 960 672 l 1104 672 l 1104 0 l 960 0 l 960 178 l 949 167 q 912 131 929 147 q 879 99 894 114 q 774 25 828 50 q 649 0 721 0 l 429 0 q 350 6 388 0 q 272 18 313 11 l 264 19 l 264 -256 l 119 -256 z "},"–":{"ha":778,"x_min":119,"x_max":682,"o":"m 119 353 l 119 472 l 682 472 l 682 353 l 119 353 z "},"—":{"ha":1354,"x_min":119,"x_max":1279,"o":"m 119 353 l 119 472 l 1279 472 l 1279 353 l 119 353 z "},"‘":{"ha":361,"x_min":119,"x_max":249,"o":"m 119 946 l 119 947 l 182 1046 l 119 946 m 119 803 l 119 921 l 249 921 l 249 803 l 119 803 z "},"’":{"ha":361,"x_min":119,"x_max":249,"o":"m 119 928 l 119 1046 l 249 1046 l 249 928 l 119 928 m 186 803 l 249 903 l 249 901 l 186 803 z "},"‚":{"ha":361,"x_min":119,"x_max":250,"o":"m 146 -167 l 211 -44 l 119 -44 l 119 74 l 250 74 l 250 -44 l 188 -164 l 146 -167 z "},"“":{"ha":597,"x_min":119,"x_max":494,"o":"m 119 946 l 119 947 l 182 1046 l 119 946 m 119 803 l 119 921 l 249 921 l 249 803 l 119 803 m 364 946 l 364 947 l 428 1046 l 364 946 m 364 803 l 364 921 l 494 921 l 494 803 l 364 803 z "},"”":{"ha":597,"x_min":119,"x_max":494,"o":"m 119 928 l 119 1046 l 249 1046 l 249 928 l 119 928 m 186 803 l 249 903 l 249 901 l 186 803 m 364 928 l 364 1046 l 494 1046 l 494 928 l 364 928 m 431 803 l 494 903 l 494 901 l 431 803 z "},"„":{"ha":597,"x_min":119,"x_max":494,"o":"m 119 -44 l 119 74 l 249 74 l 249 -44 l 119 -44 m 186 -169 l 249 -69 l 249 -71 l 186 -169 m 364 -44 l 364 74 l 494 74 l 494 -44 l 364 -44 m 431 -169 l 494 -69 l 494 -71 l 431 -169 z "},"†":{"ha":781,"x_min":119,"x_max":685,"o":"m 333 0 l 347 647 l 119 638 l 119 783 l 346 774 l 335 1003 l 476 1003 l 467 774 l 685 783 l 685 638 l 465 647 l 478 0 l 333 0 z "},"‡":{"ha":781,"x_min":119,"x_max":685,"o":"m 119 219 l 119 367 l 344 356 l 344 364 q 338 433 342 399 q 333 503 333 467 q 338 570 333 536 q 344 640 342 604 l 344 647 l 119 638 l 119 783 l 346 774 l 335 1003 l 476 1003 l 467 774 l 685 783 l 685 638 l 467 647 l 468 640 q 474 570 471 604 q 478 503 478 536 q 474 433 478 467 q 468 364 471 399 l 467 356 l 685 367 l 685 219 l 467 231 l 476 0 l 335 0 l 346 231 l 119 219 z "},"•":{"ha":475,"x_min":119,"x_max":367,"o":"m 119 504 q 129 553 119 529 q 156 594 139 576 q 196 622 174 611 q 243 632 218 632 q 290 622 268 632 q 330 594 313 611 q 357 553 347 576 q 367 504 367 529 q 357 455 367 478 q 330 414 347 432 q 290 385 313 396 q 243 375 268 375 q 196 385 218 375 q 156 414 174 396 q 129 455 139 432 q 119 504 119 478 z "},"…":{"ha":1083,"x_min":119,"x_max":999,"o":"m 119 0 l 119 118 l 249 118 l 249 0 l 119 0 m 494 0 l 494 118 l 624 118 l 624 0 l 494 0 m 868 0 l 868 118 l 999 118 l 999 0 l 868 0 z "},"‰":{"ha":2511,"x_min":119,"x_max":2481,"o":"m 556 0 l 1135 972 l 1271 972 l 692 0 l 556 0 m 1207 239 q 1220 181 1207 204 q 1256 144 1233 158 q 1305 125 1278 131 q 1361 119 1332 119 l 1415 119 q 1472 125 1444 119 q 1520 144 1499 131 q 1555 181 1542 158 q 1568 239 1568 204 l 1568 317 q 1555 375 1568 351 q 1520 413 1542 399 q 1472 433 1499 426 q 1415 439 1444 439 l 1361 439 q 1305 433 1332 439 q 1256 413 1278 426 q 1220 375 1233 399 q 1207 317 1207 351 l 1207 239 m 1064 233 l 1064 325 q 1087 440 1064 394 q 1149 511 1110 485 q 1240 548 1188 538 q 1350 558 1292 558 l 1425 558 q 1535 548 1483 558 q 1627 511 1588 538 q 1690 440 1667 485 q 1713 325 1713 394 l 1713 233 q 1690 119 1713 164 q 1627 47 1667 74 q 1535 10 1588 21 q 1425 0 1483 0 l 1350 0 q 1240 10 1292 0 q 1149 47 1188 21 q 1087 119 1110 74 q 1064 233 1064 164 m 1975 239 q 1988 181 1975 204 q 2024 144 2001 158 q 2073 125 2046 131 q 2129 119 2100 119 l 2183 119 q 2240 125 2213 119 q 2288 144 2267 131 q 2323 181 2310 158 q 2336 239 2336 204 l 2336 317 q 2323 375 2336 351 q 2288 413 2310 399 q 2240 433 2267 426 q 2183 439 2213 439 l 2129 439 q 2073 433 2100 439 q 2024 413 2046 426 q 1988 375 2001 399 q 1975 317 1975 351 l 1975 239 m 1832 233 l 1832 325 q 1855 440 1832 394 q 1917 511 1878 485 q 2008 548 1956 538 q 2118 558 2060 558 l 2193 558 q 2303 548 2251 558 q 2395 511 2356 538 q 2458 440 2435 485 q 2481 325 2481 394 l 2481 233 q 2458 119 2481 164 q 2395 47 2435 74 q 2303 10 2356 21 q 2193 0 2251 0 l 2118 0 q 2008 10 2060 0 q 1917 47 1956 21 q 1855 119 1878 74 q 1832 233 1832 164 m 264 654 q 277 596 264 619 q 313 558 290 572 q 362 539 335 544 q 418 533 389 533 l 471 533 q 527 539 500 533 q 576 558 554 544 q 610 596 597 572 q 624 654 624 619 l 624 731 q 610 789 624 765 q 576 826 597 813 q 527 847 554 840 q 471 853 500 853 l 418 853 q 362 847 389 853 q 313 826 335 840 q 277 789 290 813 q 264 731 264 765 l 264 654 m 119 647 l 119 739 q 142 853 119 808 q 204 925 165 899 q 295 962 243 951 q 406 972 347 972 l 481 972 q 591 962 539 972 q 683 925 643 951 q 745 853 722 899 q 768 739 768 808 l 768 647 q 745 533 768 578 q 683 461 722 488 q 591 424 643 435 q 481 414 539 414 l 406 414 q 295 424 347 414 q 204 461 243 435 q 142 533 165 488 q 119 647 119 578 z "},"‹":{"ha":536,"x_min":128,"x_max":418,"o":"m 328 97 l 128 376 l 328 657 l 418 581 l 272 376 l 418 174 l 328 97 z "},"›":{"ha":536,"x_min":132,"x_max":422,"o":"m 132 174 l 278 376 l 132 581 l 221 657 l 422 376 l 221 97 l 132 174 z "},"⁄":{"ha":728,"x_min":133,"x_max":615,"o":"m 133 -58 l 493 1008 l 615 1008 l 256 -58 l 133 -58 z "},"€":{"ha":1253,"x_min":119,"x_max":1174,"o":"m 119 292 l 119 411 l 238 411 l 238 576 l 119 576 l 119 696 l 249 696 q 281 828 249 775 q 367 913 314 881 q 490 958 421 944 q 633 972 560 972 l 1174 972 l 1174 853 l 633 853 q 542 849 582 853 q 470 828 501 844 q 418 781 439 813 q 386 696 397 750 l 825 696 l 825 576 l 382 576 l 382 411 l 825 411 l 825 292 l 385 292 q 413 210 392 243 q 468 158 435 178 q 544 128 501 138 q 633 119 586 119 l 1174 119 l 1174 0 l 633 0 q 489 17 558 0 q 366 68 419 33 q 280 157 313 103 q 247 286 247 211 l 246 292 l 119 292 z "},"™":{"ha":1315,"x_min":74,"x_max":1236,"o":"m 300 522 l 300 917 l 74 917 l 74 972 l 750 972 q 839 958 792 972 q 914 906 886 944 q 988 958 940 944 q 1076 972 1035 972 l 1236 972 l 1236 522 l 1168 522 l 1168 917 l 1064 917 q 976 878 1004 917 q 947 782 947 840 l 947 522 l 879 522 l 879 782 q 851 878 879 840 q 763 917 822 917 l 656 917 l 656 522 l 589 522 l 589 917 l 365 917 l 365 522 l 300 522 z "},"−":{"ha":867,"x_min":119,"x_max":774,"o":"m 119 426 l 119 546 l 774 546 l 774 426 l 119 426 z "},"":{"ha":1275,"x_min":93,"x_max":1226,"o":"m 93 0 l 382 786 q 639 972 449 972 l 681 972 q 938 786 871 972 l 1226 0 l 564 0 l 608 119 l 1028 119 l 796 758 q 657 853 758 853 q 524 758 560 853 l 249 0 l 93 0 z "},"":{"ha":1193,"x_min":119,"x_max":1133,"o":"m 119 0 l 119 550 l 782 550 q 888 592 846 550 q 929 701 929 635 q 888 810 929 768 q 782 853 846 853 l 142 853 l 206 972 l 782 972 q 894 955 840 972 q 988 903 947 938 q 1053 817 1029 868 q 1076 701 1076 767 q 1057 600 1076 643 q 1004 513 1038 557 q 1100 413 1067 465 q 1133 276 1133 360 q 1110 160 1133 211 q 1047 73 1086 108 q 953 19 1007 38 q 840 0 900 0 l 119 0 m 264 119 l 840 119 q 947 165 906 119 q 988 276 988 210 q 946 387 988 343 q 840 431 904 431 l 264 431 l 264 119 z "},"":{"ha":1118,"x_min":99,"x_max":1035,"o":"m 179 853 q 245 913 208 889 q 323 949 282 936 q 408 967 364 963 q 494 972 451 972 l 1035 972 l 1035 853 l 179 853 m 99 550 l 243 550 q 242 444 243 497 q 247 344 242 392 q 266 255 253 296 q 307 184 279 214 q 381 137 335 154 q 494 119 426 119 l 1035 119 l 1035 0 l 494 0 q 195 101 292 0 q 99 411 99 201 l 99 550 z "},"":{"ha":1086,"x_min":85,"x_max":1038,"o":"m 85 0 l 85 553 l 229 553 l 229 119 l 642 119 q 829 186 765 119 q 893 381 893 253 l 893 590 q 829 785 893 719 q 642 851 765 851 l 108 851 l 171 971 l 642 971 q 941 871 844 971 q 1038 560 1038 771 l 1038 411 q 941 101 1038 201 q 642 0 844 0 l 85 0 z "},"":{"ha":1118,"x_min":99,"x_max":1035,"o":"m 179 853 q 245 913 208 889 q 323 949 282 936 q 408 967 364 963 q 494 972 451 972 l 1035 972 l 1035 853 l 179 853 m 99 431 l 99 550 l 946 550 l 946 431 l 99 431 m 1035 0 l 494 0 q 408 5 451 0 q 323 23 364 10 q 245 60 282 36 q 179 119 208 83 l 1035 119 l 1035 0 z "},"":{"ha":1139,"x_min":119,"x_max":1056,"o":"m 200 853 q 266 913 229 889 q 344 949 303 936 q 428 967 385 963 q 515 972 472 972 l 1056 972 l 1056 853 l 200 853 m 119 0 l 119 550 l 967 550 l 967 431 l 264 431 l 264 0 l 119 0 z "},"":{"ha":1168,"x_min":99,"x_max":1088,"o":"m 179 853 q 245 913 208 889 q 323 949 282 936 q 408 967 364 963 q 494 972 451 972 l 1088 972 l 1088 853 l 179 853 m 99 550 l 243 550 q 242 444 243 497 q 247 344 242 392 q 266 255 253 296 q 307 184 279 214 q 381 137 335 154 q 494 119 426 119 l 943 119 l 943 431 l 536 431 l 600 550 l 1088 550 l 1088 0 l 494 0 q 195 101 292 0 q 99 411 99 201 l 99 550 z "},"":{"ha":1172,"x_min":119,"x_max":1090,"o":"m 119 0 l 119 972 l 264 972 l 264 0 l 119 0 m 472 431 l 529 550 l 946 550 l 946 972 l 1090 972 l 1090 0 l 946 0 l 946 431 l 472 431 z "},"":{"ha":1158,"x_min":119,"x_max":1090,"o":"m 119 0 l 119 972 l 264 972 l 264 0 l 119 0 m 474 478 l 538 597 q 688 599 615 597 q 819 622 761 600 q 911 699 876 644 q 946 858 946 753 l 946 972 l 1090 972 l 1090 888 q 1084 788 1090 838 q 1062 694 1078 739 q 1019 609 1046 649 q 950 538 992 569 q 1019 466 992 506 q 1062 381 1046 426 q 1084 285 1078 335 q 1090 186 1090 236 l 1090 0 l 946 0 l 946 215 q 926 342 946 293 q 872 421 906 392 q 792 463 838 450 q 693 478 746 475 q 584 480 640 482 q 474 478 528 478 z "},"":{"ha":1582,"x_min":119,"x_max":1515,"o":"m 746 0 l 746 561 q 731 676 746 624 q 684 769 715 729 q 606 831 653 808 q 494 853 558 853 l 142 853 l 206 972 l 465 972 q 561 965 511 972 q 659 942 611 958 q 749 897 707 925 q 818 828 790 869 q 888 897 846 869 q 977 942 929 925 q 1075 965 1025 958 q 1171 972 1125 972 l 1515 972 l 1515 0 l 1372 0 l 1372 853 l 1143 853 q 1031 831 1079 853 q 952 769 983 808 q 906 676 921 729 q 890 561 890 624 l 890 0 l 746 0 m 119 0 l 119 553 l 264 553 l 264 0 l 119 0 z "},"":{"ha":1182,"x_min":119,"x_max":1101,"o":"m 957 0 l 957 561 q 942 676 957 624 q 895 769 926 729 q 817 831 864 808 q 704 853 769 853 l 142 853 l 206 972 l 675 972 q 864 952 783 972 q 997 884 944 932 q 1076 757 1050 836 q 1101 561 1101 678 l 1101 0 l 957 0 m 119 0 l 119 553 l 264 553 l 264 0 l 119 0 z "},"":{"ha":1193,"x_min":119,"x_max":1133,"o":"m 119 0 l 119 542 l 840 542 q 946 585 904 542 q 988 696 988 629 q 947 808 988 763 q 840 853 906 853 l 142 853 l 206 972 l 840 972 q 953 953 900 972 q 1047 899 1007 935 q 1110 813 1086 864 q 1133 696 1133 761 q 1110 580 1133 631 q 1046 494 1086 529 q 952 440 1006 458 q 840 422 899 422 l 264 422 l 264 0 l 119 0 z "},"":{"ha":1200,"x_min":119,"x_max":1133,"o":"m 119 0 l 119 542 l 840 542 q 946 585 904 542 q 988 696 988 629 q 947 808 988 763 q 840 853 906 853 l 142 853 l 206 972 l 840 972 q 953 953 900 972 q 1046 899 1006 935 q 1110 812 1086 863 q 1133 696 1133 761 q 1125 622 1133 653 q 1102 567 1117 592 q 1067 520 1088 543 q 1019 468 1046 497 q 1076 400 1054 433 q 1111 331 1099 367 q 1128 256 1124 296 q 1133 168 1133 217 l 1133 0 l 990 0 q 990 160 990 83 q 969 294 990 236 q 894 388 947 353 q 738 422 842 422 l 264 422 l 264 0 l 119 0 z "},"":{"ha":1139,"x_min":117,"x_max":1078,"o":"m 132 853 q 240 944 172 915 q 378 972 307 972 l 1050 972 l 1050 853 l 132 853 m 117 0 l 117 119 l 785 119 q 891 163 850 119 q 932 272 932 206 q 913 353 932 322 q 861 401 894 385 q 783 424 828 418 q 686 431 739 431 q 566 426 628 431 q 442 422 504 422 q 342 427 390 422 q 252 445 294 432 q 176 483 210 458 q 118 546 142 507 l 785 546 q 899 531 846 546 q 992 485 953 517 q 1055 403 1032 453 q 1078 285 1078 354 q 1056 165 1078 218 q 994 75 1033 111 q 901 19 954 39 q 785 0 847 0 l 117 0 z "},"":{"ha":1317,"x_min":119,"x_max":1240,"o":"m 119 853 l 119 972 l 1240 972 l 1240 853 l 119 853 m 608 0 l 608 628 l 751 628 l 751 0 l 608 0 z "},"":{"ha":1182,"x_min":119,"x_max":1101,"o":"m 957 344 l 957 972 l 1101 972 l 1101 344 l 957 344 m 1014 119 l 1078 0 l 544 0 q 356 20 436 0 q 223 88 275 40 q 145 215 171 136 q 119 411 119 294 l 119 972 l 264 972 l 264 411 q 279 296 264 349 q 326 203 294 243 q 404 142 357 164 q 515 119 451 119 l 1014 119 z "},"":{"ha":1163,"x_min":119,"x_max":1081,"o":"m 128 851 l 128 971 l 986 971 l 1050 851 l 128 851 m 119 0 l 119 53 q 142 172 119 118 q 201 272 164 226 q 285 356 238 317 q 385 428 333 394 q 488 491 436 461 q 585 550 540 521 l 814 550 q 743 503 779 525 q 671 458 707 481 q 612 423 647 444 q 538 376 576 401 q 462 321 500 350 q 393 263 424 292 q 344 207 363 235 q 325 157 325 179 l 325 119 l 1081 119 l 1081 0 l 119 0 z "},"":{"ha":1274,"x_min":99,"x_max":1218,"o":"m 458 0 q 184 115 269 10 q 99 411 99 221 l 99 561 q 195 872 99 771 q 494 972 292 972 l 822 972 q 1122 872 1025 972 q 1218 561 1218 771 l 1218 411 q 1206 274 1218 338 q 1164 160 1193 211 q 1086 73 1135 110 q 964 15 1038 36 q 935 9 950 11 q 907 1 921 7 l 1064 -183 l 871 -183 l 611 119 q 720 117 665 119 q 826 119 775 115 q 923 136 878 124 q 1001 178 968 149 q 1054 256 1035 207 q 1074 382 1074 306 l 1074 590 q 1010 786 1074 719 q 822 853 946 853 l 494 853 q 307 786 371 853 q 243 590 243 719 l 243 382 q 295 201 243 271 q 458 121 347 131 l 458 0 z "},"":{"ha":1275,"x_min":93,"x_max":1226,"o":"m 93 0 l 382 786 q 431 881 403 844 q 497 937 460 917 q 579 965 533 957 q 681 972 625 972 q 938 786 869 972 l 1226 0 l 1071 0 l 796 758 q 742 829 778 806 q 657 853 706 853 q 575 828 610 853 q 524 758 540 804 l 249 0 l 93 0 z "},"":{"ha":1193,"x_min":142,"x_max":1133,"o":"m 206 0 l 142 119 l 840 119 q 946 165 906 119 q 986 276 986 210 q 945 387 986 343 q 840 431 904 431 l 206 431 l 142 550 l 782 550 q 888 592 846 550 q 929 701 929 635 q 888 810 929 768 q 782 853 846 853 l 206 853 l 142 972 l 782 972 q 894 955 840 972 q 988 903 947 938 q 1053 817 1029 868 q 1076 701 1076 767 q 1057 600 1076 643 q 1004 513 1038 557 q 1100 413 1067 465 q 1133 276 1133 360 q 1110 160 1133 211 q 1047 73 1086 108 q 953 19 1007 38 q 840 0 900 0 l 206 0 z "},"":{"ha":2257,"x_min":99,"x_max":2217,"o":"m 132 0 l 132 119 l 799 119 q 905 163 864 119 q 946 272 946 206 q 931 342 946 313 q 893 390 917 371 q 838 417 869 408 q 769 426 806 426 l 392 426 q 278 441 332 426 q 185 487 225 456 q 122 567 144 518 q 99 685 99 615 q 121 805 99 751 q 183 896 143 858 q 276 953 222 933 q 392 972 329 972 l 2217 972 l 2217 853 l 392 853 q 285 808 325 853 q 246 694 246 763 q 265 616 246 646 q 319 569 285 586 q 399 547 353 553 q 499 542 446 542 q 616 545 556 542 q 736 549 676 549 q 872 540 807 549 q 985 503 936 531 q 1064 423 1035 475 q 1093 285 1093 371 q 1070 165 1093 218 q 1008 75 1047 111 q 915 19 968 39 q 799 0 861 0 l 132 0 m 1425 431 l 1425 382 q 1489 186 1425 253 q 1676 119 1553 119 l 2217 119 l 2217 0 l 1676 0 q 1377 101 1474 0 q 1281 411 1281 201 l 1281 550 l 2128 550 l 2128 431 l 1425 431 z "},"":{"ha":2346,"x_min":99,"x_max":2331,"o":"m 132 0 l 132 119 l 799 119 q 905 163 864 119 q 946 272 946 206 q 931 342 946 313 q 893 390 917 371 q 838 417 869 408 q 769 426 806 426 l 392 426 q 278 441 332 426 q 185 487 225 456 q 122 567 144 518 q 99 685 99 615 q 121 805 99 751 q 183 896 143 858 q 276 953 222 933 q 392 972 329 972 l 2038 972 q 2151 953 2097 972 q 2244 899 2204 935 q 2307 813 2283 864 q 2331 696 2331 761 q 2307 580 2331 631 q 2243 494 2283 529 q 2149 440 2203 458 q 2038 422 2096 422 l 1460 422 l 1460 0 l 1317 0 l 1317 542 l 2038 542 q 2142 585 2101 542 q 2183 696 2183 629 q 2143 808 2183 763 q 2038 853 2103 853 l 392 853 q 285 808 325 853 q 246 694 246 763 q 265 616 246 646 q 319 569 285 586 q 399 547 353 553 q 499 542 446 542 q 616 545 556 542 q 736 549 676 549 q 872 540 807 549 q 985 503 936 531 q 1064 423 1035 475 q 1093 285 1093 371 q 1070 165 1093 218 q 1008 75 1047 111 q 915 19 968 39 q 799 0 861 0 l 132 0 z "},"":{"ha":2353,"x_min":99,"x_max":2331,"o":"m 132 0 l 132 119 l 799 119 q 905 163 864 119 q 946 272 946 206 q 931 342 946 313 q 893 390 917 371 q 838 417 869 408 q 769 426 806 426 l 392 426 q 278 441 332 426 q 185 487 225 456 q 122 567 144 518 q 99 685 99 615 q 121 805 99 751 q 183 895 143 858 q 276 952 222 932 q 392 972 329 972 l 2038 972 q 2151 953 2097 972 q 2244 899 2204 935 q 2307 813 2283 864 q 2331 696 2331 761 q 2322 622 2331 653 q 2299 567 2314 592 q 2264 520 2285 543 q 2217 468 2243 497 q 2274 400 2251 433 q 2308 331 2296 367 q 2326 256 2321 296 q 2331 168 2331 217 l 2331 0 l 2188 0 q 2188 160 2188 83 q 2166 294 2188 236 q 2092 388 2144 353 q 1935 422 2039 422 l 1460 422 l 1460 0 l 1317 0 l 1317 542 l 2038 542 q 2142 585 2101 542 q 2183 696 2183 629 q 2143 808 2183 763 q 2038 853 2103 853 l 392 853 q 285 808 325 853 q 246 694 246 763 q 265 616 246 646 q 319 569 285 586 q 399 547 353 553 q 499 542 446 542 q 616 545 556 542 q 736 549 676 549 q 872 540 807 549 q 985 503 936 531 q 1064 423 1035 475 q 1093 285 1093 371 q 1070 165 1093 218 q 1008 75 1047 111 q 915 19 968 39 q 799 0 861 0 l 132 0 z "},"":{"ha":2240,"x_min":99,"x_max":2200,"o":"m 132 0 l 132 119 l 799 119 q 905 163 864 119 q 946 272 946 206 q 931 342 946 313 q 893 390 917 371 q 838 417 869 408 q 769 426 806 426 l 392 426 q 278 441 332 426 q 185 487 225 456 q 122 567 144 518 q 99 685 99 615 q 121 805 99 751 q 183 896 143 858 q 276 953 222 933 q 392 972 329 972 l 2200 972 l 2200 853 l 1711 853 l 1711 0 l 1567 0 l 1567 853 l 392 853 q 285 808 325 853 q 246 694 246 763 q 265 616 246 646 q 319 569 285 586 q 399 547 353 553 q 499 542 446 542 q 616 545 556 542 q 736 549 676 549 q 872 540 807 549 q 985 503 936 531 q 1064 423 1035 475 q 1093 285 1093 371 q 1070 165 1093 218 q 1008 75 1047 111 q 915 19 968 39 q 799 0 861 0 l 132 0 z "},"":{"ha":2338,"x_min":119,"x_max":2300,"o":"m 608 0 l 608 853 l 119 853 l 119 972 l 2300 972 l 2300 853 l 751 853 l 751 0 l 608 0 m 1507 431 l 1507 382 q 1571 186 1507 253 q 1760 119 1635 119 l 2300 119 l 2300 0 l 1760 0 q 1460 101 1557 0 q 1363 411 1363 201 l 1363 550 l 2211 550 l 2211 431 l 1507 431 z "},"":{"ha":2426,"x_min":119,"x_max":2414,"o":"m 608 0 l 608 853 l 119 853 l 119 972 l 2119 972 q 2233 953 2179 972 q 2326 899 2286 935 q 2390 813 2367 864 q 2414 696 2414 761 q 2390 580 2414 631 q 2326 494 2367 529 q 2231 440 2285 458 q 2119 422 2178 422 l 1543 422 l 1543 0 l 1399 0 l 1399 542 l 2119 542 q 2225 585 2183 542 q 2267 696 2267 629 q 2226 808 2267 763 q 2119 853 2185 853 l 751 853 l 751 0 l 608 0 z "},"":{"ha":2433,"x_min":119,"x_max":2414,"o":"m 608 0 l 608 853 l 119 853 l 119 972 l 2119 972 q 2233 953 2179 972 q 2326 899 2286 935 q 2390 812 2367 863 q 2414 696 2414 761 q 2406 623 2414 653 q 2383 568 2397 593 q 2347 520 2368 543 q 2300 468 2326 497 q 2356 400 2333 433 q 2391 331 2378 367 q 2409 256 2404 296 q 2414 168 2414 217 l 2414 0 l 2269 0 l 2271 107 q 2262 240 2271 182 q 2226 339 2253 299 q 2149 401 2199 379 q 2018 422 2100 422 l 1543 422 l 1543 0 l 1399 0 l 1399 542 l 2119 542 q 2225 585 2183 542 q 2267 696 2267 629 q 2226 808 2267 763 q 2119 853 2185 853 l 751 853 l 751 0 l 608 0 z "},"":{"ha":2372,"x_min":119,"x_max":2357,"o":"m 608 0 l 608 853 l 119 853 l 119 972 l 2329 972 l 2329 853 l 751 853 l 751 0 l 608 0 m 1396 0 l 1396 119 l 2064 119 q 2170 163 2129 119 q 2211 272 2211 206 q 2197 342 2211 313 q 2158 390 2182 371 q 2101 417 2133 408 q 2035 426 2069 426 l 1464 426 l 1400 546 l 2064 546 q 2178 531 2125 546 q 2272 485 2232 517 q 2334 403 2311 453 q 2357 285 2357 354 q 2335 165 2357 218 q 2273 75 2313 111 q 2180 19 2233 39 q 2064 0 2126 0 l 1396 0 z "},"":{"ha":2079,"x_min":119,"x_max":2032,"o":"m 608 0 l 608 853 l 119 853 l 119 972 l 2032 972 l 2032 853 l 1543 853 l 1543 0 l 1399 0 l 1399 853 l 751 853 l 751 0 l 608 0 z "},"":{"ha":2319,"x_min":99,"x_max":2294,"o":"m 243 431 l 243 382 q 307 186 243 253 q 494 119 371 119 l 1035 119 l 1035 0 l 494 0 q 195 101 292 0 q 99 411 99 201 l 99 561 q 195 872 99 771 q 494 972 292 972 l 1943 972 q 2055 955 2001 972 q 2149 903 2108 938 q 2214 817 2190 868 q 2238 701 2238 767 q 2219 600 2238 642 q 2167 513 2200 558 q 2261 413 2228 467 q 2294 276 2294 358 q 2271 160 2294 211 q 2208 73 2247 108 q 2115 19 2168 38 q 2001 0 2061 0 l 1281 0 l 1281 550 l 1943 550 q 2049 592 2007 550 q 2090 701 2090 635 q 2049 810 2090 768 q 1943 853 2007 853 l 494 853 q 372 831 421 853 q 295 770 324 810 q 255 675 267 731 q 243 550 243 619 l 946 550 l 946 431 l 243 431 m 1425 119 l 2001 119 q 2108 165 2067 119 q 2149 276 2149 210 q 2107 387 2149 343 q 2001 431 2065 431 l 1425 431 l 1425 119 z "},"":{"ha":2194,"x_min":99,"x_max":2153,"o":"m 243 431 l 243 382 q 307 186 243 253 q 494 119 371 119 l 1035 119 l 1035 0 l 494 0 q 195 101 292 0 q 99 411 99 201 l 99 561 q 195 872 99 771 q 494 972 292 972 l 1035 972 l 1035 853 l 494 853 q 372 831 421 853 q 295 770 324 810 q 255 675 267 731 q 243 550 243 619 l 2063 550 l 2063 431 l 243 431 m 1296 853 q 1362 913 1325 889 q 1440 949 1399 936 q 1524 967 1481 963 q 1611 972 1568 972 l 2153 972 l 2153 853 l 1296 853 m 2153 0 l 1611 0 q 1524 5 1568 0 q 1440 23 1481 10 q 1362 60 1399 36 q 1296 119 1325 83 l 2153 119 l 2153 0 z "},"":{"ha":2244,"x_min":99,"x_max":2204,"o":"m 243 431 l 243 382 q 307 186 243 253 q 494 119 371 119 l 1035 119 l 1035 0 l 494 0 q 195 101 292 0 q 99 411 99 201 l 99 561 q 195 872 99 771 q 494 972 292 972 l 2204 972 l 2204 853 l 494 853 q 372 831 421 853 q 295 770 324 810 q 255 675 267 731 q 243 550 243 619 l 946 550 l 946 431 l 243 431 m 1215 550 l 1360 550 q 1359 444 1360 497 q 1364 344 1358 392 q 1383 255 1369 296 q 1424 184 1396 214 q 1497 137 1451 154 q 1611 119 1542 119 l 2060 119 l 2060 431 l 1631 431 l 1631 550 l 2204 550 l 2204 0 l 1611 0 q 1312 101 1408 0 q 1215 411 1215 201 l 1215 550 z "},"":{"ha":2700,"x_min":99,"x_max":2676,"o":"m 1281 0 l 1281 550 l 1425 550 l 1425 0 l 1281 0 m 243 431 l 243 382 q 307 186 243 253 q 494 119 371 119 l 1035 119 l 1035 0 l 494 0 q 195 101 292 0 q 99 411 99 201 l 99 561 q 195 872 99 771 q 494 972 292 972 l 1626 972 q 1722 965 1672 972 q 1820 942 1772 958 q 1910 897 1868 925 q 1979 828 1951 869 q 2049 897 2007 869 q 2138 942 2090 925 q 2236 965 2186 958 q 2332 972 2286 972 l 2676 972 l 2676 0 l 2533 0 l 2533 853 l 2304 853 q 2192 831 2240 853 q 2113 769 2144 808 q 2067 677 2082 731 q 2051 561 2051 624 l 2051 0 l 1907 0 l 1907 561 q 1893 668 1907 615 q 1851 762 1879 721 q 1779 828 1822 803 q 1676 853 1736 853 l 494 853 q 372 831 421 853 q 295 770 324 810 q 255 675 267 731 q 243 550 243 619 l 946 550 l 946 431 l 243 431 z "},"":{"ha":2300,"x_min":99,"x_max":2261,"o":"m 243 431 l 243 382 q 307 186 243 253 q 494 119 371 119 l 1035 119 l 1035 0 l 494 0 q 195 101 292 0 q 99 411 99 201 l 99 561 q 195 872 99 771 q 494 972 292 972 l 1836 972 q 2024 952 1944 972 q 2157 884 2104 932 q 2235 758 2210 836 q 2261 561 2261 679 l 2261 0 l 2118 0 l 2118 561 q 2103 677 2118 624 q 2056 769 2088 731 q 1978 831 2025 808 q 1865 853 1931 853 l 494 853 q 372 831 421 853 q 295 770 324 810 q 255 675 267 731 q 243 550 243 619 l 946 550 l 946 431 l 243 431 m 1281 0 l 1281 550 l 1425 550 l 1425 0 l 1281 0 z "},"":{"ha":2311,"x_min":99,"x_max":2294,"o":"m 243 431 l 243 382 q 307 186 243 253 q 494 119 371 119 l 1035 119 l 1035 0 l 494 0 q 195 101 292 0 q 99 411 99 201 l 99 561 q 195 872 99 771 q 494 972 292 972 l 2001 972 q 2114 953 2061 972 q 2207 899 2167 935 q 2271 812 2247 863 q 2294 696 2294 761 q 2271 580 2294 631 q 2207 494 2247 529 q 2113 440 2167 458 q 2001 422 2060 422 l 1425 422 l 1425 0 l 1281 0 l 1281 542 l 2001 542 q 2107 585 2065 542 q 2149 696 2149 629 q 2108 808 2149 763 q 2001 853 2067 853 l 494 853 q 372 831 421 853 q 295 770 324 810 q 255 675 267 731 q 243 550 243 619 l 946 550 l 946 431 l 243 431 z "},"":{"ha":2318,"x_min":99,"x_max":2294,"o":"m 243 431 l 243 382 q 307 186 243 253 q 494 119 371 119 l 1035 119 l 1035 0 l 494 0 q 195 101 292 0 q 99 411 99 201 l 99 561 q 195 872 99 771 q 494 972 292 972 l 2001 972 q 2114 953 2061 972 q 2207 899 2167 935 q 2271 812 2247 863 q 2294 696 2294 761 q 2286 620 2294 650 q 2263 566 2278 590 q 2228 519 2249 542 q 2181 468 2207 497 q 2236 400 2214 433 q 2272 331 2258 367 q 2290 256 2285 296 q 2294 168 2294 217 l 2294 0 l 2151 0 q 2151 160 2151 83 q 2130 294 2151 236 q 2056 388 2108 353 q 1899 422 2003 422 l 1425 422 l 1425 0 l 1281 0 l 1281 542 l 2001 542 q 2107 585 2065 542 q 2149 696 2149 629 q 2108 808 2149 763 q 2001 853 2067 853 l 494 853 q 372 831 421 853 q 295 770 324 810 q 255 675 267 731 q 243 550 243 619 l 946 550 l 946 431 l 243 431 z "},"":{"ha":2271,"x_min":99,"x_max":2253,"o":"m 243 426 l 243 382 q 307 186 243 253 q 494 119 371 119 l 1035 119 l 1035 0 l 494 0 q 195 101 292 0 q 99 411 99 201 l 99 561 q 195 872 99 771 q 494 972 292 972 l 2225 972 l 2225 853 l 494 853 q 370 831 419 853 q 293 769 321 810 q 254 673 265 729 q 243 546 243 617 l 1960 546 q 2074 531 2021 546 q 2167 485 2128 517 q 2230 403 2207 453 q 2253 285 2253 354 q 2231 165 2253 218 q 2169 75 2208 111 q 2076 19 2129 39 q 1960 0 2022 0 l 1292 0 l 1292 119 l 1960 119 q 2065 163 2025 119 q 2106 272 2106 206 q 2091 342 2106 313 q 2053 390 2076 371 q 1997 417 2029 408 q 1931 426 1965 426 l 243 426 z "},"":{"ha":2258,"x_min":99,"x_max":2218,"o":"m 243 431 l 243 382 q 307 186 243 253 q 494 119 371 119 l 1035 119 l 1035 0 l 494 0 q 195 101 292 0 q 99 411 99 201 l 99 561 q 195 872 99 771 q 494 972 292 972 l 2218 972 l 2218 853 l 1731 853 l 1731 0 l 1586 0 l 1586 853 l 494 853 q 372 831 421 853 q 295 770 324 810 q 255 675 267 731 q 243 550 243 619 l 946 550 l 946 431 l 243 431 z "},"":{"ha":2286,"x_min":99,"x_max":2247,"o":"m 514 431 l 514 550 l 1088 550 l 1088 0 l 494 0 q 195 101 292 0 q 99 411 99 201 l 99 561 q 195 872 99 771 q 494 972 292 972 l 2247 972 l 2247 853 l 494 853 q 307 786 371 853 q 243 590 243 719 l 243 382 q 307 186 243 253 q 494 119 371 119 l 943 119 l 943 431 l 514 431 m 1454 431 l 1454 382 q 1519 186 1454 253 q 1707 119 1583 119 l 2247 119 l 2247 0 l 1707 0 q 1408 101 1504 0 q 1311 411 1311 201 l 1311 550 l 2158 550 l 2158 431 l 1454 431 z "},"":{"ha":2368,"x_min":99,"x_max":2347,"o":"m 514 431 l 514 550 l 1088 550 l 1088 0 l 494 0 q 195 101 292 0 q 99 411 99 201 l 99 561 q 195 872 99 771 q 494 972 292 972 l 2053 972 q 2166 953 2113 972 q 2260 899 2219 935 q 2324 812 2300 863 q 2347 696 2347 761 q 2339 620 2347 650 q 2316 566 2331 590 q 2281 519 2301 542 q 2233 468 2260 497 q 2289 400 2267 433 q 2324 331 2311 367 q 2342 256 2336 296 q 2347 168 2347 217 l 2347 0 l 2203 0 q 2203 160 2203 83 q 2182 294 2203 236 q 2108 388 2161 353 q 1950 422 2056 422 l 1476 422 l 1476 0 l 1332 0 l 1332 542 l 2053 542 q 2158 585 2117 542 q 2200 696 2200 629 q 2159 808 2200 763 q 2053 853 2118 853 l 494 853 q 307 786 371 853 q 243 590 243 719 l 243 382 q 307 186 243 253 q 494 119 371 119 l 943 119 l 943 431 l 514 431 z "},"":{"ha":2321,"x_min":99,"x_max":2306,"o":"m 513 431 l 514 550 l 1088 550 l 1088 0 l 494 0 q 195 101 292 0 q 99 411 99 201 l 99 561 q 195 872 99 771 q 494 972 292 972 l 2276 972 l 2276 853 l 494 853 q 307 786 371 853 q 243 590 243 719 l 243 382 q 307 186 243 253 q 494 119 371 119 l 943 119 l 943 431 l 513 431 m 1343 0 l 1343 119 l 2011 119 q 2117 163 2076 119 q 2158 272 2158 206 q 2144 342 2158 313 q 2106 390 2129 371 q 2050 417 2082 408 q 1982 426 2018 426 l 1411 426 l 1349 546 l 2011 546 q 2126 531 2072 546 q 2219 485 2179 517 q 2283 403 2260 453 q 2306 285 2306 354 q 2283 165 2306 218 q 2220 75 2260 111 q 2127 19 2181 39 q 2011 0 2074 0 l 1343 0 z "},"":{"ha":2263,"x_min":99,"x_max":2222,"o":"m 514 431 l 514 550 l 1088 550 l 1088 0 l 494 0 q 195 101 292 0 q 99 411 99 201 l 99 561 q 195 872 99 771 q 494 972 292 972 l 2222 972 l 2222 853 l 1735 853 l 1735 0 l 1590 0 l 1590 853 l 494 853 q 307 786 371 853 q 243 590 243 719 l 243 382 q 307 186 243 253 q 494 119 371 119 l 943 119 l 943 431 l 514 431 z "},"":{"ha":2164,"x_min":119,"x_max":2147,"o":"m 119 0 l 119 972 l 264 972 l 264 119 l 1057 119 l 1303 786 q 1352 881 1324 844 q 1417 937 1381 917 q 1500 965 1454 957 q 1601 972 1546 972 q 1858 786 1790 972 l 2147 0 l 1992 0 l 1876 314 l 1486 314 l 1529 433 l 1833 433 l 1717 758 q 1663 829 1699 806 q 1578 853 1626 853 q 1496 828 1531 853 q 1446 758 1461 804 l 1169 0 l 119 0 z "},"":{"ha":2250,"x_min":119,"x_max":2210,"o":"m 119 0 l 119 561 q 216 872 119 771 q 515 972 313 972 l 2210 972 l 2210 853 l 515 853 q 393 831 442 853 q 316 770 344 810 q 276 675 288 731 q 264 550 264 619 l 967 550 l 967 431 l 264 431 l 264 0 l 119 0 m 1272 0 l 1272 550 l 2119 550 l 2119 431 l 1417 431 l 1417 0 l 1272 0 z "},"ﬁ":{"ha":1081,"x_min":119,"x_max":996,"o":"m 119 0 l 119 561 q 216 872 119 771 q 515 972 313 972 l 779 972 l 779 853 l 515 853 q 383 826 443 853 q 289 725 324 799 q 279 704 283 714 q 269 683 275 694 l 265 672 l 996 672 l 996 0 l 851 0 l 851 553 l 264 553 l 264 0 l 119 0 z "},"ﬂ":{"ha":1081,"x_min":119,"x_max":996,"o":"m 119 0 l 119 561 q 216 872 119 771 q 515 972 313 972 l 996 972 l 996 0 l 851 0 l 851 853 l 515 853 q 383 826 443 853 q 289 725 324 799 q 279 704 283 714 q 269 683 275 694 l 265 672 l 715 672 l 715 553 l 264 553 l 264 0 l 119 0 z "}}}
